solid OpenSCAD_Model
  facet normal 0 0 -1
    outer loop
      vertex 0 0 0
      vertex -4 0 0
      vertex 0 40 0
    endloop
  endfacet
  facet normal 0 0 -1
    outer loop
      vertex 41 0 0
      vertex 45 30 0
      vertex 45 0 0
    endloop
  endfacet
  facet normal 0 0 -1
    outer loop
      vertex 41 40 0
      vertex 45 30 0
      vertex 41 0 0
    endloop
  endfacet
  facet normal 0 0 -1
    outer loop
      vertex 45 30 0
      vertex 41 40 0
      vertex 45 34 0
    endloop
  endfacet
  facet normal 0 0 -1
    outer loop
      vertex 45 34 0
      vertex 41 40 0
      vertex 45 44 0
    endloop
  endfacet
  facet normal 0 0 -1
    outer loop
      vertex 0 40 0
      vertex 45 44 0
      vertex 41 40 0
    endloop
  endfacet
  facet normal 0 0 -1
    outer loop
      vertex 0 40 0
      vertex -4 44 0
      vertex 45 44 0
    endloop
  endfacet
  facet normal 0 0 -1
    outer loop
      vertex -4 44 0
      vertex 0 40 0
      vertex -4 0 0
    endloop
  endfacet
  facet normal 0 0 -1
    outer loop
      vertex 59 30 0
      vertex 55 34 0
      vertex 59 34 0
    endloop
  endfacet
  facet normal 0 0 -1
    outer loop
      vertex 55 34 0
      vertex 49 34 0
      vertex 55 44 0
    endloop
  endfacet
  facet normal 0 0 -1
    outer loop
      vertex 59 30 0
      vertex 49 34 0
      vertex 55 34 0
    endloop
  endfacet
  facet normal 0 0 -1
    outer loop
      vertex 45 30 0
      vertex 49 34 0
      vertex 59 30 0
    endloop
  endfacet
  facet normal -0 0 -1
    outer loop
      vertex 49 34 0
      vertex 45 30 0
      vertex 45 34 0
    endloop
  endfacet
  facet normal -0 0 -1
    outer loop
      vertex 55 44 0
      vertex 49 34 0
      vertex 49 44 0
    endloop
  endfacet
  facet normal 0 0 1
    outer loop
      vertex 55 44 95
      vertex 49 44 95
      vertex 55 34 95
    endloop
  endfacet
  facet normal -0 0 1
    outer loop
      vertex 55 34 95
      vertex 59 30 95
      vertex 59 34 95
    endloop
  endfacet
  facet normal 0 0 1
    outer loop
      vertex 49 34 95
      vertex 55 34 95
      vertex 49 44 95
    endloop
  endfacet
  facet normal -0 0 1
    outer loop
      vertex 49 34 95
      vertex 59 30 95
      vertex 55 34 95
    endloop
  endfacet
  facet normal 0 0 1
    outer loop
      vertex 45 30 95
      vertex 49 34 95
      vertex 45 34 95
    endloop
  endfacet
  facet normal 0 0 1
    outer loop
      vertex 49 34 95
      vertex 45 30 95
      vertex 59 30 95
    endloop
  endfacet
  facet normal -0 0 1
    outer loop
      vertex 41 40 95
      vertex 45 34 95
      vertex 45 44 95
    endloop
  endfacet
  facet normal 0 0 1
    outer loop
      vertex 45 34 95
      vertex 41 40 95
      vertex 45 30 95
    endloop
  endfacet
  facet normal 0 0 1
    outer loop
      vertex 41 0 95
      vertex 45 30 95
      vertex 41 40 95
    endloop
  endfacet
  facet normal 0 0 1
    outer loop
      vertex 45 44 95
      vertex 0 40 95
      vertex 41 40 95
    endloop
  endfacet
  facet normal -0 0 1
    outer loop
      vertex -4 44 95
      vertex 0 40 95
      vertex 45 44 95
    endloop
  endfacet
  facet normal 0 0 1
    outer loop
      vertex -4 0 95
      vertex 0 40 95
      vertex -4 44 95
    endloop
  endfacet
  facet normal 0 0 1
    outer loop
      vertex 0 40 95
      vertex -4 0 95
      vertex 0 0 95
    endloop
  endfacet
  facet normal 0 0 1
    outer loop
      vertex 45 30 95
      vertex 41 0 95
      vertex 45 0 95
    endloop
  endfacet
  facet normal 0 -1 0
    outer loop
      vertex 0 40 0
      vertex 41 40 95
      vertex 0 40 95
    endloop
  endfacet
  facet normal 0 -1 -0
    outer loop
      vertex 41 40 95
      vertex 0 40 0
      vertex 41 40 0
    endloop
  endfacet
  facet normal -1 0 0
    outer loop
      vertex 41 0 0
      vertex 41 40 95
      vertex 41 40 0
    endloop
  endfacet
  facet normal -1 -0 0
    outer loop
      vertex 41 40 95
      vertex 41 0 0
      vertex 41 0 95
    endloop
  endfacet
  facet normal 0 -1 0
    outer loop
      vertex 41 0 0
      vertex 45 0 95
      vertex 41 0 95
    endloop
  endfacet
  facet normal 0 -1 -0
    outer loop
      vertex 45 0 95
      vertex 41 0 0
      vertex 45 0 0
    endloop
  endfacet
  facet normal 1 -0 0
    outer loop
      vertex 45 0 95
      vertex 45 30 0
      vertex 45 30 95
    endloop
  endfacet
  facet normal 1 0 0
    outer loop
      vertex 45 30 0
      vertex 45 0 95
      vertex 45 0 0
    endloop
  endfacet
  facet normal 1 -0 0
    outer loop
      vertex 45 34 95
      vertex 45 44 0
      vertex 45 44 95
    endloop
  endfacet
  facet normal 1 0 0
    outer loop
      vertex 45 44 0
      vertex 45 34 95
      vertex 45 34 0
    endloop
  endfacet
  facet normal 0 1 -0
    outer loop
      vertex 45 44 0
      vertex -4 44 95
      vertex 45 44 95
    endloop
  endfacet
  facet normal 0 1 0
    outer loop
      vertex -4 44 95
      vertex 45 44 0
      vertex -4 44 0
    endloop
  endfacet
  facet normal -1 0 0
    outer loop
      vertex -4 0 0
      vertex -4 44 95
      vertex -4 44 0
    endloop
  endfacet
  facet normal -1 -0 0
    outer loop
      vertex -4 44 95
      vertex -4 0 0
      vertex -4 0 95
    endloop
  endfacet
  facet normal 0 -1 0
    outer loop
      vertex -4 0 0
      vertex 0 0 95
      vertex -4 0 95
    endloop
  endfacet
  facet normal 0 -1 -0
    outer loop
      vertex 0 0 95
      vertex -4 0 0
      vertex 0 0 0
    endloop
  endfacet
  facet normal 1 -0 0
    outer loop
      vertex 0 0 95
      vertex 0 40 0
      vertex 0 40 95
    endloop
  endfacet
  facet normal 1 0 0
    outer loop
      vertex 0 40 0
      vertex 0 0 95
      vertex 0 0 0
    endloop
  endfacet
  facet normal 0 1 -0
    outer loop
      vertex 59 34 0
      vertex 55 34 95
      vertex 59 34 95
    endloop
  endfacet
  facet normal 0 1 0
    outer loop
      vertex 55 34 95
      vertex 59 34 0
      vertex 55 34 0
    endloop
  endfacet
  facet normal 1 -0 0
    outer loop
      vertex 55 34 95
      vertex 55 44 0
      vertex 55 44 95
    endloop
  endfacet
  facet normal 1 0 0
    outer loop
      vertex 55 44 0
      vertex 55 34 95
      vertex 55 34 0
    endloop
  endfacet
  facet normal 0 1 -0
    outer loop
      vertex 55 44 0
      vertex 49 44 95
      vertex 55 44 95
    endloop
  endfacet
  facet normal 0 1 0
    outer loop
      vertex 49 44 95
      vertex 55 44 0
      vertex 49 44 0
    endloop
  endfacet
  facet normal -1 0 0
    outer loop
      vertex 49 34 0
      vertex 49 44 95
      vertex 49 44 0
    endloop
  endfacet
  facet normal -1 -0 0
    outer loop
      vertex 49 44 95
      vertex 49 34 0
      vertex 49 34 95
    endloop
  endfacet
  facet normal 0 1 -0
    outer loop
      vertex 49 34 0
      vertex 45 34 95
      vertex 49 34 95
    endloop
  endfacet
  facet normal 0 1 0
    outer loop
      vertex 45 34 95
      vertex 49 34 0
      vertex 45 34 0
    endloop
  endfacet
  facet normal 0 -1 0
    outer loop
      vertex 45 30 0
      vertex 59 30 95
      vertex 45 30 95
    endloop
  endfacet
  facet normal 0 -1 -0
    outer loop
      vertex 59 30 95
      vertex 45 30 0
      vertex 59 30 0
    endloop
  endfacet
  facet normal 1 -0 0
    outer loop
      vertex 59 30 95
      vertex 59 34 0
      vertex 59 34 95
    endloop
  endfacet
  facet normal 1 0 0
    outer loop
      vertex 59 34 0
      vertex 59 30 95
      vertex 59 30 0
    endloop
  endfacet
endsolid OpenSCAD_Model
