solid OpenSCAD_Model
  facet normal 0 0 -1
    outer loop
      vertex 0 0 0
      vertex -4 0 0
      vertex 0 40 0
    endloop
  endfacet
  facet normal 0 0 -1
    outer loop
      vertex 55 -10 0
      vertex 49 -10 0
      vertex 55 0 0
    endloop
  endfacet
  facet normal 0 0 -1
    outer loop
      vertex 55 0 0
      vertex 59 4 0
      vertex 59 0 0
    endloop
  endfacet
  facet normal 0 0 -1
    outer loop
      vertex 49 0 0
      vertex 55 0 0
      vertex 49 -10 0
    endloop
  endfacet
  facet normal 0 0 -1
    outer loop
      vertex 49 0 0
      vertex 59 4 0
      vertex 55 0 0
    endloop
  endfacet
  facet normal 0 0 -1
    outer loop
      vertex 45 4 0
      vertex 49 0 0
      vertex 45 0 0
    endloop
  endfacet
  facet normal 0 0 -1
    outer loop
      vertex 49 0 0
      vertex 45 4 0
      vertex 59 4 0
    endloop
  endfacet
  facet normal 0 0 -1
    outer loop
      vertex 41 -10 0
      vertex 45 0 0
      vertex 45 -10 0
    endloop
  endfacet
  facet normal -0 0 -1
    outer loop
      vertex 45 0 0
      vertex 41 -10 0
      vertex 45 4 0
    endloop
  endfacet
  facet normal -0 0 -1
    outer loop
      vertex 45 4 0
      vertex 41 -10 0
      vertex 41 40 0
    endloop
  endfacet
  facet normal 0 0 -1
    outer loop
      vertex 45 4 0
      vertex 41 40 0
      vertex 45 44 0
    endloop
  endfacet
  facet normal 0 0 -1
    outer loop
      vertex 0 40 0
      vertex 45 44 0
      vertex 41 40 0
    endloop
  endfacet
  facet normal 0 0 -1
    outer loop
      vertex 0 40 0
      vertex -4 44 0
      vertex 45 44 0
    endloop
  endfacet
  facet normal 0 0 -1
    outer loop
      vertex -4 44 0
      vertex 0 40 0
      vertex -4 0 0
    endloop
  endfacet
  facet normal -0 0 1
    outer loop
      vertex 41 40 95
      vertex 45 4 95
      vertex 45 44 95
    endloop
  endfacet
  facet normal 0 0 1
    outer loop
      vertex 41 -10 95
      vertex 45 4 95
      vertex 41 40 95
    endloop
  endfacet
  facet normal 0 0 1
    outer loop
      vertex 45 4 95
      vertex 41 -10 95
      vertex 45 0 95
    endloop
  endfacet
  facet normal 0 0 1
    outer loop
      vertex 45 44 95
      vertex 0 40 95
      vertex 41 40 95
    endloop
  endfacet
  facet normal -0 0 1
    outer loop
      vertex -4 44 95
      vertex 0 40 95
      vertex 45 44 95
    endloop
  endfacet
  facet normal 0 0 1
    outer loop
      vertex -4 0 95
      vertex 0 40 95
      vertex -4 44 95
    endloop
  endfacet
  facet normal 0 0 1
    outer loop
      vertex 0 40 95
      vertex -4 0 95
      vertex 0 0 95
    endloop
  endfacet
  facet normal 0 0 1
    outer loop
      vertex 59 4 95
      vertex 55 0 95
      vertex 59 0 95
    endloop
  endfacet
  facet normal 0 0 1
    outer loop
      vertex 55 0 95
      vertex 49 0 95
      vertex 55 -10 95
    endloop
  endfacet
  facet normal 0 0 1
    outer loop
      vertex 59 4 95
      vertex 49 0 95
      vertex 55 0 95
    endloop
  endfacet
  facet normal -0 0 1
    outer loop
      vertex 45 4 95
      vertex 49 0 95
      vertex 59 4 95
    endloop
  endfacet
  facet normal 0 0 1
    outer loop
      vertex 49 0 95
      vertex 45 4 95
      vertex 45 0 95
    endloop
  endfacet
  facet normal 0 0 1
    outer loop
      vertex 55 -10 95
      vertex 49 0 95
      vertex 49 -10 95
    endloop
  endfacet
  facet normal 0 0 1
    outer loop
      vertex 45 0 95
      vertex 41 -10 95
      vertex 45 -10 95
    endloop
  endfacet
  facet normal 0 1 -0
    outer loop
      vertex 45 44 0
      vertex -4 44 95
      vertex 45 44 95
    endloop
  endfacet
  facet normal 0 1 0
    outer loop
      vertex -4 44 95
      vertex 45 44 0
      vertex -4 44 0
    endloop
  endfacet
  facet normal -1 0 0
    outer loop
      vertex -4 0 0
      vertex -4 44 95
      vertex -4 44 0
    endloop
  endfacet
  facet normal -1 -0 0
    outer loop
      vertex -4 44 95
      vertex -4 0 0
      vertex -4 0 95
    endloop
  endfacet
  facet normal 0 -1 0
    outer loop
      vertex -4 0 0
      vertex 0 0 95
      vertex -4 0 95
    endloop
  endfacet
  facet normal 0 -1 -0
    outer loop
      vertex 0 0 95
      vertex -4 0 0
      vertex 0 0 0
    endloop
  endfacet
  facet normal 1 -0 0
    outer loop
      vertex 0 0 95
      vertex 0 40 0
      vertex 0 40 95
    endloop
  endfacet
  facet normal 1 0 0
    outer loop
      vertex 0 40 0
      vertex 0 0 95
      vertex 0 0 0
    endloop
  endfacet
  facet normal 0 -1 0
    outer loop
      vertex 0 40 0
      vertex 41 40 95
      vertex 0 40 95
    endloop
  endfacet
  facet normal 0 -1 -0
    outer loop
      vertex 41 40 95
      vertex 0 40 0
      vertex 41 40 0
    endloop
  endfacet
  facet normal -1 0 0
    outer loop
      vertex 41 -10 0
      vertex 41 40 95
      vertex 41 40 0
    endloop
  endfacet
  facet normal -1 -0 0
    outer loop
      vertex 41 40 95
      vertex 41 -10 0
      vertex 41 -10 95
    endloop
  endfacet
  facet normal 0 -1 0
    outer loop
      vertex 41 -10 0
      vertex 45 -10 95
      vertex 41 -10 95
    endloop
  endfacet
  facet normal 0 -1 -0
    outer loop
      vertex 45 -10 95
      vertex 41 -10 0
      vertex 45 -10 0
    endloop
  endfacet
  facet normal 1 -0 0
    outer loop
      vertex 45 4 95
      vertex 45 44 0
      vertex 45 44 95
    endloop
  endfacet
  facet normal 1 0 0
    outer loop
      vertex 45 44 0
      vertex 45 4 95
      vertex 45 4 0
    endloop
  endfacet
  facet normal 1 -0 0
    outer loop
      vertex 45 -10 95
      vertex 45 0 0
      vertex 45 0 95
    endloop
  endfacet
  facet normal 1 0 0
    outer loop
      vertex 45 0 0
      vertex 45 -10 95
      vertex 45 -10 0
    endloop
  endfacet
  facet normal 0 -1 0
    outer loop
      vertex 55 0 0
      vertex 59 0 95
      vertex 55 0 95
    endloop
  endfacet
  facet normal 0 -1 -0
    outer loop
      vertex 59 0 95
      vertex 55 0 0
      vertex 59 0 0
    endloop
  endfacet
  facet normal 1 -0 0
    outer loop
      vertex 59 0 95
      vertex 59 4 0
      vertex 59 4 95
    endloop
  endfacet
  facet normal 1 0 0
    outer loop
      vertex 59 4 0
      vertex 59 0 95
      vertex 59 0 0
    endloop
  endfacet
  facet normal 0 1 -0
    outer loop
      vertex 59 4 0
      vertex 45 4 95
      vertex 59 4 95
    endloop
  endfacet
  facet normal 0 1 0
    outer loop
      vertex 45 4 95
      vertex 59 4 0
      vertex 45 4 0
    endloop
  endfacet
  facet normal 0 -1 0
    outer loop
      vertex 45 0 0
      vertex 49 0 95
      vertex 45 0 95
    endloop
  endfacet
  facet normal 0 -1 -0
    outer loop
      vertex 49 0 95
      vertex 45 0 0
      vertex 49 0 0
    endloop
  endfacet
  facet normal -1 0 0
    outer loop
      vertex 49 -10 0
      vertex 49 0 95
      vertex 49 0 0
    endloop
  endfacet
  facet normal -1 -0 0
    outer loop
      vertex 49 0 95
      vertex 49 -10 0
      vertex 49 -10 95
    endloop
  endfacet
  facet normal 0 -1 0
    outer loop
      vertex 49 -10 0
      vertex 55 -10 95
      vertex 49 -10 95
    endloop
  endfacet
  facet normal 0 -1 -0
    outer loop
      vertex 55 -10 95
      vertex 49 -10 0
      vertex 55 -10 0
    endloop
  endfacet
  facet normal 1 -0 0
    outer loop
      vertex 55 -10 95
      vertex 55 0 0
      vertex 55 0 95
    endloop
  endfacet
  facet normal 1 0 0
    outer loop
      vertex 55 0 0
      vertex 55 -10 95
      vertex 55 -10 0
    endloop
  endfacet
endsolid OpenSCAD_Model
