<?xml version="1.0" encoding="UTF-8" standalone="no"?>
<!-- Created with Inkscape (http://www.inkscape.org/) -->

<svg
   xmlns:osb="http://www.openswatchbook.org/uri/2009/osb"
   xmlns:dc="http://purl.org/dc/elements/1.1/"
   xmlns:cc="http://creativecommons.org/ns#"
   xmlns:rdf="http://www.w3.org/1999/02/22-rdf-syntax-ns#"
   xmlns:svg="http://www.w3.org/2000/svg"
   xmlns="http://www.w3.org/2000/svg"
   xmlns:sodipodi="http://sodipodi.sourceforge.net/DTD/sodipodi-0.dtd"
   xmlns:inkscape="http://www.inkscape.org/namespaces/inkscape"
   width="210mm"
   height="297mm"
   viewBox="0 0 210 297"
   version="1.1"
   id="svg8"
   inkscape:version="0.92.4 (5da689c313, 2019-01-14)"
   sodipodi:docname="monete-tecleando.svg">
  <defs
     id="defs2">
    <linearGradient
       id="linearGradient1524"
       osb:paint="solid">
      <stop
         style="stop-color:#000000;stop-opacity:1;"
         offset="0"
         id="stop1522" />
    </linearGradient>
    <filter
       inkscape:collect="always"
       style="color-interpolation-filters:sRGB"
       id="filter1565"
       x="-0.0010797468"
       width="1.0021595"
       y="-0.0025336322"
       height="1.0050673">
      <feGaussianBlur
         inkscape:collect="always"
         stdDeviation="0.024434638"
         id="feGaussianBlur1567" />
    </filter>
  </defs>
  <sodipodi:namedview
     id="base"
     pagecolor="#ffffff"
     bordercolor="#666666"
     borderopacity="1.0"
     inkscape:pageopacity="0.0"
     inkscape:pageshadow="2"
     inkscape:zoom="2.8"
     inkscape:cx="209.44985"
     inkscape:cy="141.21629"
     inkscape:document-units="mm"
     inkscape:current-layer="layer1"
     showgrid="false"
     inkscape:window-width="1920"
     inkscape:window-height="1001"
     inkscape:window-x="-9"
     inkscape:window-y="-9"
     inkscape:window-maximized="1" />
  <metadata
     id="metadata5">
    <rdf:RDF>
      <cc:Work
         rdf:about="">
        <dc:format>image/svg+xml</dc:format>
        <dc:type
           rdf:resource="http://purl.org/dc/dcmitype/StillImage" />
        <dc:title></dc:title>
      </cc:Work>
    </rdf:RDF>
  </metadata>
  <g
     inkscape:label="Monete"
     inkscape:groupmode="layer"
     id="layer1"
     style="display:inline">
    <path
       style="fill:#000000;stroke-width:0.06414007"
       d="m 17.047074,283.64962 -2.317459,-0.29991 -2.116488,-0.58515 -2.7329423,-1.45588 -1.8668945,-1.95388 -0.4523109,-0.91152 -0.2983811,-0.95822 -0.1576197,-0.91504 -0.02655,-0.81507 1.1089665,-3.50906 3.646399,-3.27071 1.597817,-1.088 0.863123,-0.63016 0.520478,-0.58975 0.461071,-0.71904 0.530027,-1.83233 0.0432,-2.88214 0.0216,-5.27605 0.79605,-3.79723 0.851611,-2.12763 1.160896,-2.05307 1.519187,-1.91231 1.827407,-1.66008 0.313335,-0.23296 0.225684,-0.17163 0.297547,-0.19445 0.486106,-0.28782 0.48162,-0.27607 0.28674,-0.1662 0.06915,-0.144 -0.395596,-0.47407 -0.373471,-0.42273 -0.23163,-0.27191 -0.06533,-0.0822 -0.06533,-0.0822 -0.147134,0.0628 -0.147135,0.063 -1.515759,0.19708 -1.520507,-0.5367 -1.138524,-1.21384 -0.596153,-1.68372 0.159397,-1.77645 0.918257,-1.49263 0.679253,-0.52588 0.403253,-0.15865 0.01485,0.0135 0.0342,-0.0341 0.32928,-0.15561 0.645833,-0.102 0.450091,-0.0996 0.159624,-0.67679 0.532281,-1.87479 0.909347,-1.65647 0.844441,-0.94122 0.997884,-0.84339 2.368623,-1.1264 3.193975,-0.70812 0.656731,-0.10365 0.478478,-0.0965 0.615083,-0.24325 0.535434,-0.32886 0.341896,-0.3808 0.313477,-0.47557 0.366608,-0.31969 0.476191,0.28352 0.337927,0.46077 0.21873,0.53503 0.03832,0.1374 0.0384,0.1374 0.09786,-0.0905 0.09786,-0.0905 0.442126,-0.66984 0.242205,-0.83385 0.09986,-0.48847 0.243316,-0.1077 0.360052,0.1122 0.523868,0.43726 0.89425,1.43544 0.0023,1.77689 -0.07088,0.36705 -0.0038,0.15268 0.48726,0.39059 0.554506,0.58063 0.675946,1.26313 0.436028,1.41944 0.0618,0.32842 0.04162,0.21461 0.07938,0.11355 0.215439,0.0612 0.989895,0.47427 0.874599,1.01276 0.400029,0.77332 0.240419,0.82052 0.07447,1.15187 -0.325589,1.0194 -0.406651,0.54741 -0.397336,0.35591 -0.04042,0.0867 0.06683,0.25304 0.114495,1.04945 -0.14751,1.14814 -1.329076,2.42578 -2.364761,1.6671 -1.650655,0.54874 -1.727252,0.28813 -0.314137,0.0204 -0.314138,0.0202 -0.136005,0.15233 -0.136005,0.15229 -0.233454,0.32308 -0.08974,0.39184 -3.9e-4,1.16144 0.285421,0.98247 0.520875,0.73016 0.716663,0.5017 0.444946,0.169 0.527677,0.001 0.546563,-0.0732 0.553254,-0.21054 1.782819,-1.09165 2.109438,-1.81709 1.015817,-0.87304 0.919215,-0.54138 1.040109,-0.36834 0.94464,-0.044 1.341693,0.37593 1.273359,0.94687 1.192104,1.60931 0.0045,1.39683 -0.07455,0.16707 -0.07455,0.16707 0.07372,0.27391 0.07373,0.27389 0.152992,1.12238 -0.11535,0.91088 -0.325673,0.47981 -0.513354,0.18723 -0.924217,-0.19769 -0.649103,-1.06152 -0.223119,-0.53529 -0.16956,-0.3864 -0.12489,-0.22069 -0.09389,0.0632 -0.583605,0.49929 -1.004274,0.21831 -0.620476,0.0927 -0.458581,0.16493 -0.491086,0.33629 0.14817,0.43572 0.807885,1.27891 0.553531,1.14294 0.17481,0.51898 0.03735,0.64156 -0.0231,0.61392 -0.172395,0.29953 -0.750098,0.48097 -0.802794,-0.10201 -0.437557,-0.38079 -0.294174,-0.42552 -0.06705,-0.0567 -0.168029,0.19333 -0.425761,0.35327 -0.502561,0.147 -0.14106,0.0226 0.0015,0.0889 0.20295,0.72368 0.05505,1.08747 -0.0123,0.81537 -0.0333,0.54495 -0.02415,0.17618 -0.02423,0.17617 0.791499,0.0215 0.791506,0.0215 2.48425,0.0896 2.712603,0.14415 0.807646,0.0403 0.351796,0.002 0.255135,-1.25672 0.908077,-4.99507 0.211007,-1.16739 0.188137,-1.03748 0.16668,-0.92645 0.159436,-0.90045 0.62043,-3.31856 0.43665,-0.81452 1.169184,-0.44643 6.527692,-0.0507 5.56506,0.0165 1.401196,0.075 0.432241,0.32391 0.245888,0.44943 -0.374431,3.25863 -1.207254,6.30243 -0.909856,4.10538 -0.487665,1.70146 -0.399099,0.44106 -0.713183,0.21369 -5.779153,0.25475 -7.507989,0.0829 -5.453204,-0.1041 -3.697676,-0.14775 -0.297999,-0.019 -0.297997,-0.0189 -0.120405,0.19119 -0.12039,0.19116 -1.05135,1.36385 -1.28719,1.18145 -0.357442,0.28301 -0.148665,0.138 0.148665,0.0777 0.357442,0.138 2.450652,1.42692 0.9615,1.74626 -0.03877,0.28508 -0.154237,0.24075 -0.489549,0.30329 -0.81324,0.0539 -0.258391,-0.015 -0.25839,-0.015 -0.0189,0.0912 -0.0189,0.0912 -0.402361,0.48962 -0.82509,0.18815 -0.287026,0.0351 -0.252067,0.0976 -1.150367,0.14536 -2.024544,-0.24935 -2.386495,-0.33442 -3.160138,-0.13425 -2.646497,-0.10845 -1.127694,-0.35635 -0.601141,-0.4192 -0.439876,-0.46522 -0.122039,-0.0668 -0.393391,0.19541 -2.188592,0.66433 -2.052528,-0.26555 -0.212122,-0.0874 -0.11394,-0.0363 -0.491386,-0.26567 -0.657503,-0.46139 -0.167677,-0.13801 -0.167672,-0.138 -0.248287,0.22382 -0.248281,0.22382 -0.902251,0.68725 -1.365946,0.84476 -1.169911,0.78424 -0.906775,0.77588 -0.96471,1.99619 0.400567,2.17566 0.402564,0.66233 0.516105,0.55273 1.496986,1.00132 2.029452,0.63281 2.036454,0.12286 2.045081,-0.0851 1.756988,-0.62918 0.812919,-1.04083 0.0699,-0.59498 -0.09442,-0.7788 -0.05835,-0.45339 7.5e-4,-0.33407 1.234059,-0.86118 1.88413,0.87606 0.60897,0.97556 0.17859,1.24594 -0.09541,0.97899 -0.393061,0.84791 -1.246291,1.35593 -1.916327,1.02832 -2.108949,0.59382 -2.397055,0.25335 -0.66856,0.012 -0.506924,-0.009 -5.3e-5,6e-5 z m 19.343556,-12.15564 -0.283478,-0.35177 -0.612451,-0.42463 -0.926228,-0.36687 -0.780443,-0.20509 -0.60231,-0.17957 -0.10521,-0.38921 0.240833,-0.19232 0.522564,0.0377 1.639321,0.49123 1.189958,0.75458 0.282024,0.29378 0.141075,0.19443 0.09591,0.0997 0.271201,0.0239 0.430837,-0.0614 0.148215,-0.17849 -0.554469,-0.90327 -1.012839,-0.92328 -2.16985,-0.87734 -3.021851,-0.58319 -0.43242,-0.0672 -0.214298,-0.0608 -0.190395,0.012 -0.308079,0.21634 -0.374819,0.19031 -0.283929,-0.0861 -0.260474,-0.20405 -0.310756,-0.0345 -0.240893,0.1278 -0.326686,0.25383 -0.548601,0.3418 -0.407506,-0.25642 -0.193598,-0.19839 -0.163096,-0.11295 -0.419842,0.0336 -0.543848,0.34906 -0.563018,0.40403 -0.377484,0.0697 -0.22893,0.0515 -0.431183,0.38273 -0.242632,0.23561 -0.242626,0.23563 0.06255,0.11205 0.06255,0.11205 0.448185,0.42493 0.756413,0.36562 0.711505,0.13305 2.161884,0.0606 3.023561,0.10545 1.991013,0.23927 0.678263,0.0999 0.320482,0.0187 0.07297,-0.006 0.08302,0.0396 0.74698,0.15338 0.980467,0.0788 0.210886,-0.0273 0.101535,-0.0521 v -10e-6 z m 3.549942,-1.09824 0.1158,-0.22352 -0.19716,-0.47896 -1.320535,-1.24945 -2.203517,-0.95031 -0.249578,-0.0704 -0.24957,-0.0704 -0.16464,0.0683 -0.164626,0.0684 -0.295162,0.0965 -0.247291,0.0402 -0.12408,0.0633 0.557408,0.22116 0.617408,0.23876 0.688673,0.35479 0.890597,0.65587 0.740348,0.81357 0.244951,0.29881 0.2385,0.0978 0.186255,0.0332 0.11562,0.0263 0.422956,0.0241 0.397643,-0.058 v 2e-5 z m 9.492199,-7.54161 -0.510669,-0.57926 -0.655155,-0.0945 -3.604527,-0.19003 -2.806406,-0.0777 -2.077676,-0.0157 -0.420217,0.1134 -0.109935,0.17444 -0.03023,0.27775 0.02167,0.23948 0.05992,0.10275 3.315596,0.16208 5.345001,0.1131 0.828347,0.006 0.828338,0.006 -0.09202,-0.11805 z m 8.20101,0.17206 4.039505,-0.15206 1.586493,-0.20306 0.218602,-0.25445 0.26517,-0.96513 1.4758,-6.71519 1.031634,-5.94527 0.122069,-1.11214 -0.131399,-0.27218 -0.90961,-0.11205 -5.359618,-0.0163 -5.235944,0.0163 -1.004633,0.0941 -0.132345,0.31525 -0.167011,0.70844 -0.431264,2.15451 -0.423151,2.16069 -0.221064,1.14141 -0.2064,1.06346 -0.308309,1.62383 -0.378039,2.09297 -0.189337,1.05637 -0.13974,0.77052 -0.101355,0.56696 -0.09714,0.56698 -0.09171,0.53457 -0.08832,0.48911 -0.04298,0.22837 -0.04297,0.22836 1.09587,-3.2e-4 1.095871,-3.1e-4 2.305661,-0.0189 2.46562,-0.0447 -8e-6,3e-5 z m -0.163259,-4.99471 -0.845603,-0.80077 -0.349231,-1.32193 0.11367,-1.17235 0.520493,-0.99414 1.031439,-0.75311 1.202979,-0.0822 1.188204,1.26981 -0.0504,2.21338 -0.79813,1.26664 -1.261403,0.50123 -0.406657,-0.009 z m 1.202978,-0.71461 0.553209,-0.47525 0.394913,-0.77204 0.09762,-1.00061 -0.175974,-0.90042 -0.376162,-0.45007 -0.500948,-0.14055 -0.906054,0.34069 -0.612368,0.88467 0.0096,1.79046 0.969721,0.88973 0.242767,-0.0487 z m -8.523369,4.68822 0.09743,-0.64917 0.172995,-1.0059 0.209206,-1.1674 0.184395,-1.03748 0.620685,-3.35444 0.721283,-3.73265 0.204555,-1.03196 0.218919,-1.10993 0.17841,-0.8945 0.107159,-0.51404 0.0282,-0.12151 0.0282,-0.1215 -0.09814,0.0189 -0.09813,0.019 -0.544869,0.31432 -0.260549,0.70102 -0.0972,0.5833 -0.170731,0.96011 -0.564961,3.11706 -0.275317,1.54468 -0.187148,1.05046 -0.208988,1.15442 -0.476124,2.62904 -0.315149,1.78679 -0.05678,0.33378 -0.05678,0.33378 0.12879,0.15868 0.12879,0.15866 0.193769,0.21745 0.104175,0.0771 0.04133,-0.13216 0.04268,-0.28574 h -1.5e-5 z m -11.007816,-4.54747 0.125565,-0.45521 -0.112065,-0.73622 -0.09765,-0.5644 0.175914,-0.22742 0.338827,0.0135 0.294054,0.43207 0.226169,0.38644 0.240885,0.30962 0.243999,0.20471 0.215377,0.0105 0.297631,-0.12061 0.146145,-0.27606 0.0078,-0.52426 -0.183503,-0.67177 -0.325921,-0.61513 -0.284624,-0.35136 -0.08838,-0.0855 -0.140025,-0.20558 -0.08843,-0.1455 -0.08843,-0.1455 0.07888,-0.0585 0.07889,-0.0585 0.310584,-0.10636 0.339599,0.19283 0.584288,0.68342 0.696728,1.24781 0.454801,0.85281 0.304606,0.49603 0.198383,0.19431 0.201322,0.007 0.172164,-0.0314 0.130184,-0.0194 0.07447,-0.0361 0.03833,-0.0716 0.02115,-0.1389 0.03315,-0.1982 -0.380767,-1.57166 -1.323317,-2.11648 -0.796298,-0.90708 -0.713438,-0.49013 -0.808982,-0.2351 -0.858001,0.1167 -0.360091,0.10515 -0.191249,0.0459 -0.0834,0.0346 -0.10083,0.0782 -0.0958,0.0771 -0.07125,0.0321 -0.563573,0.47611 -0.804234,0.80938 -0.268763,0.3331 0.06712,0.1272 0.119295,0.21363 -0.184552,0.40296 -0.193164,0.50236 0.261654,0.28665 0.288862,0.22384 -0.08977,0.30017 -0.130275,0.31725 0.101415,0.23891 0.287506,0.11055 0.37506,-0.10245 0.355358,6.6e-4 0.302782,0.58662 0.307389,0.66723 0.312067,0.29769 0.320296,-0.003 0.298642,-0.14415 -4.5e-5,-3e-5 z m 9.069792,-4.86918 0.11676,-0.7257 -0.158574,-0.99353 -0.36606,-0.90497 -0.460696,-0.79423 -0.118289,-0.1659 -0.118305,-0.16591 0.05723,-0.1224 0.05722,-0.1224 0.217702,-0.31348 0.264241,0.1473 0.199012,0.23663 0.185077,0.28027 0.08758,0.15566 0.08758,0.15565 0.01005,-0.0979 0.01005,-0.0979 -0.14004,-0.49583 -0.393547,-0.62373 -0.740738,-0.74635 -0.810729,-0.61212 -0.97713,-0.34471 -1.43125,0.11941 -0.150338,0.0614 -0.223859,0.1245 -0.205906,0.1197 -0.1071,0.0498 -0.571456,0.39581 -1.019717,0.89357 -0.60708,0.56772 -0.323505,0.30053 -0.11055,0.22217 0.215197,0.17466 0.321654,0.28603 -0.167154,0.42807 -0.08439,0.14056 -0.0351,0.12705 0.14793,0.25391 0.325539,0.11655 0.326947,0.0837 0.08046,0.33781 0.04642,0.29738 0.233002,0.27864 0.319493,0.2215 0.436417,-0.24256 0.646756,-0.31125 0.898442,-0.15983 0.743955,-0.1491 0.337576,-0.24433 -0.109995,-0.34962 -0.419692,-0.32856 -0.361756,-0.12555 -0.451605,-0.0542 -0.551454,-0.0966 -0.198277,-0.2867 0.214074,-0.67359 0.698918,-0.23846 1.275684,0.54918 1.037079,1.10855 0.260632,0.47756 0.265994,0.56658 0.591406,1.25183 0.400321,0.22858 0.166132,-0.0411 0.131745,-0.12945 v 2e-5 z m -13.579246,-7.32818 3.839148,-1.06464 2.338233,-2.23842 0.384886,-0.91955 0.21468,-0.95828 -0.05475,-0.81276 -0.27243,-0.82639 -0.47697,-0.64173 -0.673351,-0.57429 -0.144945,-0.0941 -0.14496,-0.094 0.0114,-0.88067 0.01125,-0.88068 -0.06323,-2.41551 -0.284999,-1.14935 -0.505516,-0.39428 -0.836222,-0.15426 -0.89559,0.0771 -0.792106,0.35343 -0.773521,0.62648 -0.578191,0.88635 -0.404467,0.44966 -0.637321,-0.45635 -2.452322,-1.47635 -2.50907,0.32832 -1.150079,0.77233 -0.767432,1.04064 -0.346012,2.4053 1.014922,2.57414 0.212926,0.32787 0.08864,0.16906 -0.101715,0.17114 -0.244763,0.33284 -0.635626,1.0715 -0.192465,1.07993 0.321202,1.43407 0.870542,1.07259 1.397566,0.50665 2.046536,0.32726 0.40002,0.0363 0.182273,0.0294 1.09689,0.0223 1.506978,-0.0628 -1.5e-5,-1.7e-4 z m -1.520898,-2.61723 -1.377946,-0.45217 -0.742335,-0.7805 -0.08073,-0.73575 0.412957,-0.32597 0.241613,0.11821 0.0564,0.40164 0.0288,0.27998 0.181515,0.23333 0.965957,0.46882 1.376416,0.19848 0.425341,-0.16623 -0.01365,-0.91784 -0.161123,-1.197 -0.416858,-0.30016 -0.837947,-0.47971 -0.496402,-0.43846 -0.03337,-0.15108 0.07185,-0.15776 0.262635,-0.15522 0.344183,0.1386 0.601831,0.40137 0.544928,0.27662 0.239805,0.0523 0.2259,-0.0696 0.465683,-0.31269 0.369826,-0.41717 0.123315,-0.17732 0.09143,-0.1008 0.355186,0.003 0.203355,0.28582 -0.388689,0.65006 -0.750683,0.62202 -0.163702,0.1041 -0.0678,0.0808 0.02865,0.24905 0.06803,0.50835 0.06825,0.60629 0.02918,0.48463 0.06322,0.35689 0.587588,-0.16551 0.551498,-0.23173 0.481576,-0.31469 0.372998,-0.39847 0.08306,-0.42449 0.117465,-0.47974 0.390864,-0.004 0.193762,0.2587 0.01755,0.47324 -0.959117,1.29721 -2.250624,0.80844 -0.949974,0.0859 -0.951632,-0.089 -7e-6,-1.6e-4 z m -3.004001,-5.2281 -0.593063,-0.5519 -0.14331,-0.85398 0.373171,-0.88544 0.878048,-0.31865 0.752911,0.27852 0.461723,0.72551 -0.203587,1.16808 -1.003464,0.53611 -0.28815,-0.0288 z m 6.980296,-0.71038 -0.476003,-0.54687 -0.11721,-0.76445 0.177967,-0.5474 0.397681,-0.39981 1.052162,0.0543 0.526666,1.09211 -0.09925,0.57169 -0.30648,0.43222 -0.559823,0.21759 z m -14.588266,4.35158 0.693346,-1.02384 -0.492886,-1.79404 -1.562755,-1.67176 -1.846622,0.0852 -0.482444,0.46498 -0.11841,0.83803 0.0741,0.82424 0.315098,0.79839 1.517058,1.48035 z m 19.390139,-3.47291 0.368491,-0.61971 0.09211,-0.80413 -0.02018,-0.51792 -0.05018,-0.36059 -0.444991,-0.99429 -0.590925,-0.7979 -0.428836,-0.31257 -0.35328,-0.19804 -0.02625,0.5459 -0.0123,1.31249 0.0111,1.31248 0.03007,0.5459 0.482062,0.41622 0.526373,0.55478 0.09352,0.11505 0.06952,0.0479 0.09616,-0.072 0.157747,-0.17343 h -1.5e-5 z m 12.270059,7.15416 -0.12576,-0.38806 -0.180067,-0.81499 -0.10935,-0.55953 -0.10935,-0.55951 -0.08616,0.0154 -0.08615,0.0155 -0.230445,0.0459 -0.312091,0.0668 -0.319087,0.0501 -0.154365,-0.051 -0.100034,-0.25214 0.08553,-0.24867 1.237937,-0.39236 1.503736,-0.245 0.264346,0.0299 0.14382,0.12765 0.07425,0.15734 -0.07357,0.15665 -0.213647,0.16727 -0.573344,0.0837 -0.282931,0.0348 -0.1347,0.0309 0.04387,0.45715 0.219547,1.23197 0.09491,0.60163 -0.07902,0.20157 -0.251257,0.11686 -0.246638,-0.0795 2.2e-5,-1.5e-4 z m 1.641587,-0.36032 -0.099,-0.35909 0.205387,-0.96049 0.499404,-1.62715 0.390061,-0.61314 0.362729,0.0665 0.482551,0.6438 0.815642,1.38543 0.350707,0.79848 -0.15285,0.25676 -0.291774,0.0697 -0.155489,-0.15143 -0.19899,-0.31052 -0.339181,-0.42257 -0.637996,0.0286 -0.218767,0.0375 -0.218775,0.0375 -0.05423,0.24152 -0.05422,0.24153 -0.103679,0.38281 -0.09701,0.24201 -0.2196,0.13591 -0.264939,-0.12346 v 2e-5 z m 1.41613,-1.9243 0.0696,-0.018 0.0696,-0.018 -0.08268,-0.1428 -0.0827,-0.14265 -0.0827,-0.14266 -0.08268,-0.1428 -0.0603,0.1533 -0.0603,0.15329 -0.08528,0.22117 -0.03547,0.10125 0.163844,0.0135 0.269191,-0.0356 v -2e-5 z m 2.321086,1.25044 -0.15345,-0.32128 -0.209797,-0.92289 -0.268178,-1.51963 0.0411,-0.50713 0.501735,-0.19853 0.675121,-0.0904 0.931644,0.27315 0.408856,0.76439 -0.05047,0.57905 -0.327781,0.44586 -0.363766,0.26094 -0.469499,0.15209 -0.243841,0.09 0.0022,0.21134 0.08844,0.58422 -0.08151,0.20325 -0.230085,0.1008 -0.250674,-0.1053 h -1.35e-4 z m 0.735992,-1.80563 0.372037,-0.24185 0.121365,-0.33063 -0.152925,-0.37203 -0.519488,-0.0876 -0.202552,0.009 -0.20256,0.009 0.003,0.12601 0.003,0.126 0.01778,0.26586 0.03517,0.28535 0.135975,0.29029 0.389716,-0.0799 h 1.5e-5 z m -11.336653,-0.43075 -0.134145,-0.16663 -0.181748,-0.29008 -0.574779,-0.89159 -0.435989,-0.58883 -0.128805,0.0926 -0.271507,0.22245 -0.300159,0.22247 -0.197714,0.0925 -0.367299,-0.21847 0.202171,-0.44647 1.181372,-0.8865 1.048177,-0.61226 0.288474,0.06 0.14313,0.27739 -0.05205,0.18104 -0.207847,0.164 -0.198339,0.1119 -0.11187,0.0466 -0.09084,0.0429 -0.14778,0.10275 -0.09417,0.0727 -0.09417,0.0726 0.1488,0.20535 0.148799,0.20537 0.674873,1.04861 0.285826,0.67125 -0.188746,0.25603 z m 1.426464,-0.66392 -0.22641,-1.26871 -0.02145,-1.69889 0.324,-0.76069 1.233496,0.86808 1.054179,0.92792 0.333841,0.39791 -0.02985,0.0723 -0.07177,0.1119 -0.302107,0.1314 -0.436148,-0.23805 -0.142425,-0.1206 -0.142425,-0.12061 -0.275648,0.12961 -0.275655,0.1296 -0.275649,0.1296 -0.275662,0.1296 0.0222,0.19967 0.0222,0.19969 0.03968,0.56849 -0.07674,0.23012 -0.231825,0.0908 -0.245671,-0.10875 -2.2e-5,-1e-5 z m 0.789398,-2.08161 0.107055,-0.0551 0.107069,-0.055 -0.118439,-0.1011 -0.11844,-0.1011 -0.309457,-0.21583 -0.04522,0.29353 0.0603,0.32934 z m 2.472806,0.33602 -0.10335,-0.14535 -0.111029,-0.21687 -0.241305,-0.49426 -0.416513,-0.81222 -0.382291,-0.77565 -0.159008,-0.40631 0.361404,-0.36667 0.764543,-0.32075 0.381556,-0.0675 0.297517,0.0381 0.643358,0.46373 0.292981,0.7275 -0.248941,0.67177 -0.598591,0.4728 -0.166185,0.065 -0.0786,0.0328 0.03652,0.12075 0.11046,0.2766 0.15399,0.49797 -0.13602,0.23478 -0.221759,0.0929 -0.178748,-0.0891 2.3e-5,-4e-5 z m 0.480735,-2.09377 0.12441,-0.28683 -0.09873,-0.28681 -0.306675,-0.2144 -0.448786,0.0569 -0.222802,0.0927 -0.09267,0.0694 0.171292,0.3761 0.251565,0.38626 0.291744,0.0359 0.330659,-0.22918 z"
       id="path826"
       inkscape:connector-curvature="0"
       sodipodi:nodetypes="cccccccccccccccccccccccccccccccccccccccccccccccccccccccccccccccccccccccccccccccccccccccccccccccccccccccccccccccccccccccccccccccccccccccccccccccccccccccccccccccccccccccccccccccccccccccccccccccccccccccccccccccccccccccccccccccccccccccccccccccccccccccccccccccccccccccccccccccccccccccccccccccccccccccccccccccccccccccccccccccccccccccccccccccccccccccccccccccccccccccccccccccccccccccccccccccccccccccccccccccccccccccccccccccccccccccccccccccccccccccccccccccccccccccccccccccccccccccccccccccccccccccccccccccccccccccccccccccccccccccccccccccccccccccccccccccccccccccccccccccccccccccccccccccccccccccccccccccccccccccccccccccccccccccccccccccccccccccccccccccccccccccccccccccccccccccccccccccccccccccccccccccccccccccccccccccccccccccccccccccccccccccccccccccccccccccccccccccccccccccccccccccccccccccccccccccccccccccccccccccccccccccccccccccccccccccccccccccccccccccccccccccccccccccccccccccccccccccccccccccccccccccccccccccccccccccccccccccccccccccccccccccccccccccccccccccccccccccccccccccccccccccccccccccc" />
  </g>
  <g
     inkscape:groupmode="layer"
     id="layer3"
     inkscape:label="Letras"
     style="display:inline">
    <g
       aria-label="  Monguer 
of the Day"
       style="font-style:normal;font-variant:normal;font-weight:bold;font-stretch:normal;font-size:14.11111069px;line-height:1.25;font-family:'Bauhaus 93';-inkscape-font-specification:'Bauhaus 93 Bold';letter-spacing:0px;word-spacing:0px;opacity:0.99369082;fill:#000000;fill-opacity:1;stroke:none;stroke-width:0.26458332;filter:url(#filter1565)"
       id="text1533"
       transform="matrix(0.55269377,0,0,0.53163061,5.7428867,139.1964)">
      <path
         d="m 40.123546,261.47021 v -1.69498 -1.69499 -1.69498 -1.69499 l 0.0478,-0.6016 0.143402,-0.5439 0.239003,-0.48619 0.334605,-0.42848 0.410828,-0.34968 0.467671,-0.24976 0.524516,-0.14987 0.58136,-0.0499 0.681698,0.0831 0.598155,0.24934 0.514611,0.41556 0.431067,0.58179 0.242018,-0.33245 0.250631,-0.28077 0.259243,-0.2291 0.267856,-0.17742 0.288096,-0.13565 0.319964,-0.0969 0.35183,-0.0581 0.383698,-0.0194 0.596863,0.0499 0.522793,0.14987 0.448723,0.24976 0.374654,0.34968 0.295417,0.44356 0.211012,0.5314 0.126608,0.61926 0.0422,0.7071 v 1.6347 1.6347 1.63469 1.6347 h -0.699354 -0.699355 -0.699354 -0.699354 v -1.52962 -1.52962 -1.52962 -1.52962 l -0.0047,-0.208 -0.01421,-0.16924 -0.02368,-0.13049 -0.03316,-0.0917 -0.04392,-0.0663 -0.06287,-0.0474 -0.08182,-0.0284 -0.10077,-0.009 -0.180868,0.0439 -0.129191,0.13177 -0.07751,0.21963 -0.02584,0.30747 v 1.54168 1.54168 1.54168 1.54168 H 45.80451 45.105155 44.405801 43.706447 v -1.52962 -1.52962 -1.52962 -1.52962 l -0.0047,-0.20542 -0.01421,-0.16838 -0.02368,-0.13134 -0.03316,-0.0943 -0.04694,-0.0663 -0.06503,-0.0474 -0.08311,-0.0284 -0.101201,-0.009 -0.180867,0.0469 -0.129191,0.14082 -0.07752,0.2347 -0.02584,0.32858 v 1.52962 1.52962 1.52962 1.52962 h -0.699355 -0.699356 -0.699355 z"
         style="font-style:normal;font-variant:normal;font-weight:bold;font-stretch:normal;font-size:14.11111069px;font-family:'Bauhaus 93';-inkscape-font-specification:'Bauhaus 93 Bold';stroke-width:0.26458332"
         id="path2933"
         inkscape:connector-curvature="0"
         sodipodi:nodetypes="ccccccccccccccccccccccccccccccccccccccccccccccccccccccccccccccccccccccccccccccccccccccccc" />
      <path
         d="m 54.847882,254.456 0.704092,0.0659 0.651553,0.19766 0.599017,0.32944 0.546478,0.46121 0.458198,0.54992 0.327284,0.60247 0.19637,0.65499 0.06546,0.70754 -0.06632,0.71658 -0.198955,0.66146 -0.33159,0.60633 -0.464227,0.55122 -0.55466,0.4582 -0.609782,0.32728 -0.664903,0.19637 -0.720025,0.0655 -0.720456,-0.0655 -0.666195,-0.19637 -0.611935,-0.32728 -0.557675,-0.4582 -0.464226,-0.5538 -0.331591,-0.6072 -0.198954,-0.66059 -0.06632,-0.714 0.06632,-0.72433 0.198954,-0.66404 0.331591,-0.60376 0.464226,-0.54346 0.56155,-0.45217 0.623562,-0.32298 0.685574,-0.19378 z m -0.0689,2.54248 -0.198955,0.019 -0.183451,0.0568 -0.167949,0.0947 -0.152445,0.13264 -0.126607,0.15675 -0.09043,0.17398 -0.05426,0.1912 -0.01809,0.20843 0.01809,0.20584 0.05426,0.19035 0.09043,0.17483 0.126607,0.15934 0.155029,0.13264 0.16881,0.0947 0.18259,0.0568 0.196371,0.019 0.198954,-0.019 0.183451,-0.0568 0.167949,-0.0947 0.152445,-0.13264 0.129622,-0.15934 0.09259,-0.17483 0.05555,-0.19035 0.01852,-0.20584 -0.01809,-0.20843 -0.05426,-0.1912 -0.09043,-0.17398 -0.126607,-0.15675 -0.152876,-0.13264 -0.16924,-0.0947 -0.185605,-0.0568 z"
         style="font-style:normal;font-variant:normal;font-weight:bold;font-stretch:normal;font-size:14.11111069px;font-family:'Bauhaus 93';-inkscape-font-specification:'Bauhaus 93 Bold';stroke-width:0.26458332"
         id="path2935"
         inkscape:connector-curvature="0"
         sodipodi:nodetypes="cccccccccccccccccccccccccccccccccccccccccccccccccccccccccccccccccc" />
      <path
         d="M 65.596581,261.47021 H 64.952348 64.308115 63.663883 63.01965 v -0.96979 -0.96979 -0.9698 -0.96979 l -0.03057,-0.25924 -0.09173,-0.18518 -0.152876,-0.1111 -0.214027,-0.037 -0.211012,0.037 -0.150723,0.1111 -0.09043,0.18518 -0.03014,0.25924 v 0.96979 0.9698 0.96979 0.96979 H 61.4039 60.759667 60.115435 59.471202 v -0.95773 -0.95774 -0.95773 -0.95774 l 0.05555,-0.64509 0.166656,-0.5917 0.277761,-0.53829 0.388865,-0.4849 0.469394,-0.40394 0.519349,-0.28853 0.569302,-0.17311 0.619256,-0.0577 0.700646,0.0668 0.627438,0.20025 0.554229,0.33374 0.481022,0.46724 0.30446,0.45777 0.217472,0.53958 0.130483,0.62141 0.04349,0.70323 v 0.90606 0.90606 0.90606 z"
         style="font-style:normal;font-variant:normal;font-weight:bold;font-stretch:normal;font-size:14.11111069px;font-family:'Bauhaus 93';-inkscape-font-specification:'Bauhaus 93 Bold';stroke-width:0.26458332"
         id="path2937"
         inkscape:connector-curvature="0"
         sodipodi:nodetypes="ccccccccccccccccccccccccccccccccccccccccccccccccc" />
      <path
         d="m 70.771116,258.63835 v 0.59083 0.59084 0.59083 0.59083 l -0.276038,0.0904 -0.27001,0.0646 -0.26398,0.0388 -0.257952,0.0129 -0.599877,-0.059 -0.552507,-0.17699 -0.505137,-0.29499 -0.457767,-0.41298 -0.376807,-0.49824 -0.269148,-0.55079 -0.161489,-0.60332 -0.05383,-0.65586 0.06503,-0.7084 0.195079,-0.65069 0.325131,-0.59299 0.455183,-0.53528 0.549923,-0.44313 0.609352,-0.31651 0.668779,-0.18992 0.728207,-0.0633 0.39877,0.0202 0.390157,0.0607 0.381544,0.1012 0.372931,0.14168 0.348816,0.1757 0.309197,0.20326 0.269579,0.23082 0.22996,0.25838 0.307475,0.50213 0.219625,0.60375 0.131775,0.70539 0.04393,0.80701 v 0.565 0.56499 0.565 0.56499 l -0.06546,0.87635 -0.19637,0.78935 -0.327284,0.70237 -0.458198,0.61538 -0.559828,0.50341 -0.639065,0.35959 -0.718303,0.21574 -0.797539,0.0719 -0.271732,-0.0159 -0.305322,-0.0478 -0.338911,-0.0797 -0.372501,-0.11153 v -0.58567 -0.58566 -0.58567 -0.58567 l 0.252353,0.12058 0.254076,0.0861 0.255798,0.0517 0.257521,0.0172 0.328145,-0.0288 0.288527,-0.0866 0.248908,-0.14426 0.20929,-0.20197 0.165795,-0.25236 0.118425,-0.3023 0.07106,-0.35227 0.02369,-0.40221 v -0.64595 -0.64596 -0.64595 -0.64596 l -0.05469,-0.47327 -0.164072,-0.33805 -0.273455,-0.20283 -0.382836,-0.0676 -0.180437,0.0181 -0.16924,0.0543 -0.158044,0.0904 -0.146847,0.12661 -0.120578,0.14684 -0.08613,0.15805 -0.05168,0.16923 -0.01722,0.18044 0.01636,0.18819 0.04909,0.17183 0.08182,0.15546 0.11455,0.13909 0.14211,0.11455 0.157613,0.0818 0.173116,0.0491 0.188619,0.0164 0.129622,-0.008 0.127038,-0.0232 0.124454,-0.0388 z"
         style="font-style:normal;font-variant:normal;font-weight:bold;font-stretch:normal;font-size:14.11111069px;font-family:'Bauhaus 93';-inkscape-font-specification:'Bauhaus 93 Bold';stroke-width:0.26458332"
         id="path2939"
         inkscape:connector-curvature="0"
         sodipodi:nodetypes="ccccccccccccccccccccccccccccccccccccccccccccccccccccccccccccccccccccccccccccccccccccccccccccccccc" />
      <path
         d="m 75.235959,254.69716 h 0.644233 0.644232 0.644233 0.644233 v 0.96979 0.9698 0.96979 0.96979 l 0.03057,0.25623 0.09173,0.18302 0.152876,0.10982 0.214027,0.0366 0.211012,-0.0366 0.150723,-0.10982 0.09043,-0.18302 0.03015,-0.25623 v -0.96979 -0.96979 -0.9698 -0.96979 h 0.644233 0.644233 0.644233 0.644233 v 0.95773 0.95774 0.95774 0.95773 l -0.05555,0.64251 -0.166657,0.59084 -0.277761,0.53916 -0.388865,0.48748 -0.469394,0.40092 -0.519349,0.28637 -0.569301,0.17183 -0.619256,0.0573 -0.698063,-0.0668 -0.626577,-0.20024 -0.555091,-0.33375 -0.483605,-0.46724 -0.30446,-0.45734 -0.217472,-0.53829 -0.130483,-0.61925 -0.04349,-0.70022 v -0.90606 -0.90606 -0.90606 z"
         style="font-style:normal;font-variant:normal;font-weight:bold;font-stretch:normal;font-size:14.11111069px;font-family:'Bauhaus 93';-inkscape-font-specification:'Bauhaus 93 Bold';stroke-width:0.26458332"
         id="path2941"
         inkscape:connector-curvature="0"
         sodipodi:nodetypes="ccccccccccccccccccccccccccccccccccccccccccccccccc" />
      <path
         d="m 89.622677,258.45231 h -0.976685 -0.976685 -0.976684 -0.976685 l -0.03919,-0.14513 -0.02799,-0.13909 -0.01679,-0.13306 -0.0056,-0.12704 0.0078,-0.17139 0.02326,-0.16968 0.03876,-0.16794 0.05426,-0.16623 h 0.327284 0.327284 0.327285 0.327284 l -0.105506,-0.3346 -0.178714,-0.23901 -0.251923,-0.1434 -0.325131,-0.0478 -0.22996,0.0258 -0.207567,0.0775 -0.185174,0.12919 -0.162781,0.18087 -0.132636,0.2179 -0.09474,0.24719 -0.05684,0.27647 -0.01895,0.30575 0.01809,0.31824 0.05426,0.28637 0.09043,0.25451 0.126607,0.22264 0.159336,0.18087 0.181728,0.12919 0.204122,0.0775 0.226515,0.0258 0.191203,-0.0241 0.187758,-0.0723 0.184312,-0.12058 0.180868,-0.16881 0.366902,0.44097 0.366903,0.44097 0.366903,0.44098 0.366902,0.44097 -0.52753,0.35269 -0.555952,0.25192 -0.584375,0.15116 -0.612796,0.0504 -0.734236,-0.0642 -0.673085,-0.19249 -0.611935,-0.32083 -0.550785,-0.44915 -0.455183,-0.5439 -0.325131,-0.60504 -0.195079,-0.66619 -0.06503,-0.72735 0.06546,-0.72519 0.19637,-0.66663 0.327284,-0.60806 0.458198,-0.54949 0.556813,-0.45518 0.616242,-0.32514 0.675669,-0.19507 0.735098,-0.065 0.717441,0.0637 0.657152,0.19121 0.596862,0.31867 0.536574,0.44614 0.44614,0.53614 0.318671,0.59557 0.191203,0.655 0.06373,0.71443 -0.0017,0.087 -0.0052,0.10938 -0.0086,0.13177 -0.01206,0.15417 h -10e-7 v 0 h -10e-7 z"
         style="font-style:normal;font-variant:normal;font-weight:bold;font-stretch:normal;font-size:14.11111069px;font-family:'Bauhaus 93';-inkscape-font-specification:'Bauhaus 93 Bold';stroke-width:0.26458332"
         id="path2943"
         inkscape:connector-curvature="0"
         sodipodi:nodetypes="ccccccccccccccccccccccccccccccccccccccccccccccccccccccccccccccccccccccccccccccccc" />
      <path
         d="m 94.466479,254.53179 v 0.68902 0.68902 0.68902 0.68902 l -0.131344,-0.0663 -0.125315,-0.0474 -0.119287,-0.0284 -0.113257,-0.009 -0.307475,0.0672 -0.219625,0.20154 -0.131775,0.33589 -0.04392,0.47026 v 0.81476 0.81477 0.81476 0.81477 H 92.630248 91.986016 91.341783 90.69755 v -0.93879 -0.93879 -0.93878 -0.93879 l 0.05082,-0.70624 0.152446,-0.63045 0.254075,-0.55466 0.355706,-0.47887 0.440542,-0.38887 0.508582,-0.27776 0.576623,-0.16666 0.644664,-0.0556 0.162781,0.005 0.185173,0.0142 0.207567,0.0237 0.22996,0.0332 v 0 -1e-5 0 z"
         style="font-style:normal;font-variant:normal;font-weight:bold;font-stretch:normal;font-size:14.11111069px;font-family:'Bauhaus 93';-inkscape-font-specification:'Bauhaus 93 Bold';stroke-width:0.26458332"
         id="path2945"
         inkscape:connector-curvature="0"
         sodipodi:nodetypes="ccccccccccccccccccccccccccccccccccccccccc" />
      <path
         d="m 36.32705,272.09489 0.704092,0.0659 0.651554,0.19766 0.599016,0.32944 0.546478,0.46121 0.458198,0.54992 0.327284,0.60246 0.19637,0.655 0.06546,0.70754 -0.06632,0.71658 -0.198955,0.66146 -0.33159,0.60633 -0.464227,0.55122 -0.55466,0.4582 -0.609782,0.32728 -0.664903,0.19637 -0.720025,0.0655 -0.720456,-0.0655 -0.666195,-0.19637 -0.611935,-0.32728 -0.557675,-0.4582 -0.464226,-0.5538 -0.331591,-0.6072 -0.198954,-0.66059 -0.06632,-0.714 0.06632,-0.72433 0.198954,-0.66404 0.331591,-0.60376 0.464226,-0.54346 0.56155,-0.45217 0.623562,-0.32298 0.685574,-0.19378 z m -0.0689,2.54248 -0.198954,0.019 -0.183451,0.0568 -0.167949,0.0947 -0.152445,0.13264 -0.126607,0.15675 -0.09043,0.17398 -0.05426,0.1912 -0.01809,0.20843 0.01809,0.20584 0.05426,0.19035 0.09043,0.17483 0.126607,0.15934 0.155029,0.13264 0.16881,0.0947 0.18259,0.0568 0.19637,0.019 0.198954,-0.019 0.183452,-0.0568 0.167949,-0.0947 0.152445,-0.13264 0.129622,-0.15934 0.09259,-0.17483 0.05555,-0.19035 0.01852,-0.20584 -0.01809,-0.20843 -0.05426,-0.1912 -0.09043,-0.17398 -0.126607,-0.15675 -0.152876,-0.13264 -0.16924,-0.0947 -0.185605,-0.0568 z"
         style="font-style:normal;font-variant:normal;font-weight:bold;font-stretch:normal;font-size:14.11111069px;font-family:'Bauhaus 93';-inkscape-font-specification:'Bauhaus 93 Bold';stroke-width:0.26458332"
         id="path2947"
         inkscape:connector-curvature="0"
         sodipodi:nodetypes="cccccccccccccccccccccccccccccccccccccccccccccccccccccccccccccccccc" />
      <path
         d="m 44.677961,273.76232 v 0.67524 0.67523 0.67524 0.67524 H 44.390296 44.102631 43.814965 43.5273 v 0.66146 0.66145 0.66146 0.66146 h -0.644233 -0.644233 -0.644233 -0.644233 v -1.459 -1.459 -1.45899 -1.459 l 0.0211,-0.47456 0.0633,-0.43839 0.105506,-0.40221 0.147709,-0.36604 0.241156,-0.42375 0.296278,-0.3824 0.3514,-0.34107 0.406521,-0.29972 0.441834,-0.24719 0.450446,-0.17656 0.459059,-0.10594 0.467672,-0.0353 0.0689,0.002 0.0689,0.002 0.0689,0.002 0.0689,0.002 v 0.67524 0.67524 0.67523 0.67524 l -0.04177,-0.003 -0.03574,-0.002 -0.02971,-10e-4 -0.02369,-4.4e-4 -0.230822,0.0202 -0.20326,0.0607 -0.1757,0.1012 -0.148139,0.14168 -0.114549,0.17915 -0.08182,0.21359 -0.04909,0.24805 -0.01636,0.2825 v 0.0586 0.0586 0.0586 0.0586 h 0.287665 0.287666 0.287665 z"
         style="font-style:normal;font-variant:normal;font-weight:bold;font-stretch:normal;font-size:14.11111069px;font-family:'Bauhaus 93';-inkscape-font-specification:'Bauhaus 93 Bold';stroke-width:0.26458332"
         id="path2949"
         inkscape:connector-curvature="0"
         sodipodi:nodetypes="ccccccccccccccccccccccccccccccccccccccccccccccccccccccccccccc" />
      <path
         d="m 51.623273,269.70399 v 0.65801 0.65802 0.65802 0.65801 h 0.289388 0.289388 0.289388 0.289388 v 0.6804 0.68041 0.68041 0.6804 h -0.289388 -0.289388 -0.289388 -0.289388 l 0.01593,0.3781 0.0478,0.31436 0.07967,0.25063 0.111535,0.1869 0.157613,0.13565 0.211012,0.0969 0.264411,0.0581 0.31781,0.0194 v 0.67696 0.67697 0.67696 0.67696 l -0.09345,0.003 -0.08053,0.002 -0.06761,0.001 -0.05469,4.4e-4 -0.431498,-0.0254 -0.419441,-0.0762 -0.407382,-0.12704 -0.395325,-0.17786 -0.366903,-0.22135 -0.329006,-0.25752 -0.291111,-0.29369 -0.253214,-0.32987 -0.259244,-0.48059 -0.185174,-0.55293 -0.111104,-0.62529 -0.03704,-0.69763 v -1.41077 -1.41076 -1.41077 -1.41077 l 0.644233,-3e-5 0.644233,-3e-5 0.644233,-2e-5 z"
         style="font-style:normal;font-variant:normal;font-weight:bold;font-stretch:normal;font-size:14.11111069px;font-family:'Bauhaus 93';-inkscape-font-specification:'Bauhaus 93 Bold';stroke-width:0.26458332"
         id="path2951"
         inkscape:connector-curvature="0"
         sodipodi:nodetypes="ccccccccccccccccccccccccccccccccccccccccccccccccccccc" />
      <path
         d="m 56.618661,269.70399 v 0.7183 0.71831 0.7183 0.7183 l 0.327284,-0.208 0.327284,-0.14857 0.327284,-0.0891 0.327284,-0.0297 0.470256,0.0448 0.418579,0.13435 0.366903,0.22394 0.315226,0.3135 0.256229,0.38973 0.183021,0.4526 0.109812,0.51547 0.0366,0.57834 v 1.08865 1.08865 1.08865 1.08865 H 59.44019 58.795958 58.151725 57.507492 v -0.90778 -0.90778 -0.90779 -0.90778 l -0.006,-0.2024 -0.01809,-0.16622 -0.03014,-0.13005 -0.0422,-0.0939 -0.05598,-0.0663 -0.07838,-0.0474 -0.10077,-0.0284 -0.123163,-0.009 -0.189911,0.0401 -0.13565,0.12015 -0.08139,0.20024 -0.02713,0.28035 v 0.93362 0.93362 0.93362 0.93362 H 55.974431 55.330197 54.685963 54.04173 v -2.35128 -2.35127 -2.35128 -2.35128 h 0.644233 0.644233 0.644232 z"
         style="font-style:normal;font-variant:normal;font-weight:bold;font-stretch:normal;font-size:14.11111069px;font-family:'Bauhaus 93';-inkscape-font-specification:'Bauhaus 93 Bold';stroke-width:0.26458332"
         id="path2953"
         inkscape:connector-curvature="0"
         sodipodi:nodetypes="ccccccccccccccccccccccccccccccccccccccccccccccccccccccccc" />
      <path
         d="M 68.345768,276.0912 H 67.369084 66.392399 65.415715 64.43903 l -0.03919,-0.14513 -0.02799,-0.13909 -0.0168,-0.13307 -0.0056,-0.12704 0.0078,-0.17139 0.02325,-0.16967 0.03876,-0.16794 0.05426,-0.16623 h 0.327284 0.327284 0.327284 0.327284 l -0.105506,-0.33461 -0.178714,-0.239 -0.251923,-0.14341 -0.325131,-0.0478 -0.22996,0.0258 -0.207567,0.0775 -0.185174,0.12919 -0.162781,0.18087 -0.132636,0.2179 -0.09474,0.24719 -0.05684,0.27647 -0.01895,0.30575 0.01809,0.31824 0.05426,0.28637 0.09043,0.25451 0.126607,0.22264 0.159336,0.18087 0.181728,0.12919 0.204122,0.0775 0.226515,0.0258 0.191203,-0.0241 0.187758,-0.0723 0.184312,-0.12058 0.180868,-0.16881 0.366903,0.44097 0.366902,0.44097 0.366903,0.44097 0.366902,0.44097 -0.52753,0.35269 -0.555952,0.25193 -0.584375,0.15115 -0.612796,0.0504 -0.734236,-0.0642 -0.673085,-0.19249 -0.611935,-0.32083 -0.550785,-0.44915 -0.455183,-0.5439 -0.325131,-0.60504 -0.195079,-0.6662 -0.06503,-0.72734 0.06546,-0.72519 0.19637,-0.66663 0.327284,-0.60806 0.458198,-0.54949 0.556813,-0.45518 0.616242,-0.32514 0.675669,-0.19507 0.735098,-0.065 0.717441,0.0637 0.657152,0.19121 0.596862,0.31867 0.536574,0.44614 0.44614,0.53614 0.318672,0.59557 0.191203,0.655 0.06373,0.71443 -0.0017,0.087 -0.0052,0.10938 -0.0086,0.13177 -0.01206,0.15417 h -10e-7 -10e-7 -1e-6 z"
         style="font-style:normal;font-variant:normal;font-weight:bold;font-stretch:normal;font-size:14.11111069px;font-family:'Bauhaus 93';-inkscape-font-specification:'Bauhaus 93 Bold';stroke-width:0.26458332"
         id="path2955"
         inkscape:connector-curvature="0"
         sodipodi:nodetypes="ccccccccccccccccccccccccccccccccccccccccccccccccccccccccccccccccccccccccccccccccc" />
      <path
         d="m 75.938757,272.40495 v 1.67604 1.67603 1.67604 1.67604 H 75.239403 74.540048 73.840694 73.14134 v -2.35128 -2.35127 -2.35128 -2.35128 h 0.911228 0.911228 0.911227 0.911228 l 1.133867,0.068 1.003814,0.20412 0.873763,0.34021 0.74371,0.47628 0.705383,0.70926 0.503846,0.82553 0.302307,0.94181 0.100769,1.05807 -0.08613,1.01889 -0.258383,0.9207 -0.430637,0.82252 -0.602892,0.72433 -0.738542,0.59083 -0.837589,0.42202 -0.936635,0.25322 -1.035682,0.0844 -0.147708,-0.002 -0.188189,-0.005 -0.228668,-0.009 -0.269148,-0.0121 v -0.69074 -0.69074 -0.69074 -0.69074 h 0.111966 0.111965 0.111966 0.111965 l 1.070133,-0.1279 0.764381,-0.3837 0.458628,-0.63949 0.152876,-0.8953 -0.150292,-0.84103 -0.450877,-0.60074 -0.751461,-0.36044 -1.052046,-0.12015 -0.235989,1e-5 -0.23599,10e-6 -0.235989,1e-5 z"
         style="font-style:normal;font-variant:normal;font-weight:bold;font-stretch:normal;font-size:14.11111069px;font-family:'Bauhaus 93';-inkscape-font-specification:'Bauhaus 93 Bold';stroke-width:0.26458332"
         id="path2957"
         inkscape:connector-curvature="0"
         sodipodi:nodetypes="ccccccccccccccccccccccccccccccccccccccccccccccccccccccccc" />
      <path
         d="m 87.100866,276.53217 v 0.66663 0.66663 0.66662 0.66663 l -0.155029,0.0241 -0.14814,0.0172 -0.141248,0.0103 -0.134359,0.003 -0.742849,-0.0637 -0.678253,-0.19121 -0.613658,-0.31867 -0.549062,-0.44614 -0.452169,-0.54217 -0.322978,-0.60677 -0.193786,-0.67136 -0.0646,-0.73596 0.06503,-0.71916 0.195079,-0.66232 0.325131,-0.60548 0.455183,-0.54863 0.551646,-0.45518 0.607629,-0.32513 0.663611,-0.19508 0.719595,-0.065 0.789357,0.0611 0.700647,0.18345 0.611934,0.30576 0.523224,0.42805 0.422024,0.53054 0.301446,0.62012 0.180868,0.70969 0.06029,0.79926 v 0.84233 0.84232 0.84233 0.84232 H 89.433195 88.788962 88.14473 87.500497 v -0.79582 -0.79581 -0.79582 -0.79581 l -0.0168,-0.25838 -0.05038,-0.23083 -0.08397,-0.20326 -0.117564,-0.1757 -0.142541,-0.14168 -0.165795,-0.1012 -0.189049,-0.0607 -0.212304,-0.0202 -0.196371,0.0185 -0.18259,0.0556 -0.16881,0.0926 -0.155029,0.12962 -0.129622,0.15503 -0.09259,0.16881 -0.05555,0.18259 -0.01852,0.19637 0.0168,0.20412 0.05038,0.18517 0.08397,0.16623 0.117564,0.14728 0.143402,0.12058 0.161489,0.0861 0.179576,0.0517 0.197662,0.0172 0.165795,-0.0112 0.159767,-0.0336 0.153737,-0.056 0.147709,-0.0784 v 0 1e-5 10e-6 z"
         style="font-style:normal;font-variant:normal;font-weight:bold;font-stretch:normal;font-size:14.11111069px;font-family:'Bauhaus 93';-inkscape-font-specification:'Bauhaus 93 Bold';stroke-width:0.26458332"
         id="path2959"
         inkscape:connector-curvature="0"
         sodipodi:nodetypes="ccccccccccccccccccccccccccccccccccccccccccccccccccccccccccccccccccccccccccccc" />
      <path
         d="m 92.468326,282.12012 v -0.55983 -0.55983 -0.55983 -0.55983 l 0.253645,0.0965 0.237281,0.0689 0.220917,0.0413 0.204552,0.0138 0.571886,-0.0883 0.461643,-0.26484 0.351399,-0.44141 0.241157,-0.61796 -0.335897,0.17484 -0.332451,0.12488 -0.329007,0.0749 -0.325561,0.025 -0.457767,-0.0444 -0.415565,-0.13306 -0.373362,-0.22178 -0.33116,-0.31049 -0.271301,-0.38241 -0.193787,-0.43063 -0.116272,-0.47887 -0.03876,-0.5271 v -1.08004 -1.08004 -1.08003 -1.08004 h 0.644233 0.644233 0.644232 0.644233 v 0.92329 0.92328 0.92329 0.92329 l 0.03187,0.26828 0.0956,0.19163 0.159336,0.11498 0.22307,0.0383 0.214027,-0.0422 0.152876,-0.12661 0.09173,-0.21101 0.03057,-0.29542 v -0.90778 -0.90778 -0.90779 -0.90778 h 0.644233 0.644233 0.644232 0.644233 v 1.53307 1.53307 1.53306 1.53307 l -0.06029,0.81649 -0.180868,0.73381 -0.301445,0.65112 -0.422024,0.56844 -0.605476,0.54863 -0.665764,0.39188 -0.726054,0.23512 -0.786343,0.0784 -0.357859,-0.0172 -0.356998,-0.0517 -0.356137,-0.0861 z"
         style="font-style:normal;font-variant:normal;font-weight:bold;font-stretch:normal;font-size:14.11111069px;font-family:'Bauhaus 93';-inkscape-font-specification:'Bauhaus 93 Bold';stroke-width:0.26458332"
         id="path2961"
         inkscape:connector-curvature="0"
         sodipodi:nodetypes="ccccccccccccccccccccccccccccccccccccccccccccccccccccccccccccccccccccc" />
    </g>
  </g>
  <g
     inkscape:groupmode="layer"
     id="layer2"
     inkscape:label="Circulo"
     style="display:inline">
    <path
       style="fill:none;fill-opacity:1;fill-rule:nonzero;stroke:#000000;stroke-width:0.6275121;stroke-miterlimit:4;stroke-dasharray:none;stroke-opacity:1"
       d="m 74.926023,259.26016 -0.191987,3.80206 -0.563498,3.6922 -0.916316,3.56371 -1.250446,3.4165 -1.565884,3.25058 -1.862628,3.066 -2.140678,2.86269 -2.400034,2.64073 -2.640709,2.40005 -2.862691,2.14069 -3.065978,1.86263 -3.250571,1.56589 -3.416476,1.25045 -3.563684,0.91632 -3.692206,0.5635 -3.802034,0.19199 -3.802033,-0.19199 -3.692207,-0.5635 -3.563685,-0.91632 -3.416474,-1.25045 -3.250571,-1.56589 -3.065976,-1.86263 -2.862691,-2.14069 -2.640709,-2.40007 -2.4000388,-2.64071 -2.14068,-2.86269 -1.8626284,-3.066 -1.5658812,-3.25058 -1.2504449,-3.41649 -0.9163171,-3.56372 -0.56349692,-3.6922 -0.19198658,-3.80206 0.19198633,-3.80205 0.56349757,-3.69221 0.9163168,-3.56371 1.2504455,-3.41649 1.5658817,-3.25059 1.8626265,-3.06598 2.1406782,-2.86271 2.4000423,-2.64071 2.640712,-2.40006 2.862689,-2.14068 3.065975,-1.86265 3.25057,-1.56588 3.416474,-1.25045 3.563686,-0.91633 3.692206,-0.56349 3.802033,-0.192 3.802034,0.192 3.692207,0.56349 3.563683,0.91633 3.416474,1.25045 3.250571,1.56588 3.065975,1.86265 2.862688,2.14068 2.640711,2.40006 2.40004,2.64071 2.140678,2.86271 1.862628,3.06598 1.565884,3.25059 1.250446,3.41649 0.916316,3.56371 0.563498,3.69221 z"
       id="path1528"
       inkscape:connector-curvature="0"
       sodipodi:nodetypes="ccccccccccccccccccccccccccccccccccccccccccccccccccccccccccccccccc" />
  </g>
</svg>
