  0
SECTION
  2
HEADER
  9
$ACADVER
  1
AC1014
  9
$HANDSEED
  5
FFFF
  9
$MEASUREMENT
 70
     1
  0
ENDSEC
  0
SECTION
  2
TABLES
  0
TABLE
  2
VPORT
  5
8
330
0
100
AcDbSymbolTable
 70
     4
  0
VPORT
  5
2E
330
8
100
AcDbSymbolTableRecord
100
AcDbViewportTableRecord
  2
*ACTIVE
 70
     0
 10
0.0
 20
0.0
 11
1.0
 21
1.0
 12
210.0
 22
148.5
 13
0.0
 23
0.0
 14
10.0
 24
10.0
 15
10.0
 25
10.0
 16
0.0
 26
0.0
 36
1.0
 17
0.0
 27
0.0
 37
0.0
 40
341.0
 41
1.24
 42
50.0
 43
0.0
 44
0.0
 50
0.0
 51
0.0
 71
     0
 72
   100
 73
     1
 74
     3
 75
     0
 76
     0
 77
     0
 78
     0
  0
ENDTAB
  0
TABLE
  2
LTYPE
  5
5
330
0
100
AcDbSymbolTable
 70
     1
  0
LTYPE
  5
14
330
5
100
AcDbSymbolTableRecord
100
AcDbLinetypeTableRecord
  2
BYBLOCK
 70
     0
  3

 72
    65
 73
     0
 40
0.0
  0
LTYPE
  5
15
330
5
100
AcDbSymbolTableRecord
100
AcDbLinetypeTableRecord
  2
BYLAYER
 70
     0
  3

 72
    65
 73
     0
 40
0.0
  0
LTYPE
  5
16
330
5
100
AcDbSymbolTableRecord
100
AcDbLinetypeTableRecord
  2
CONTINUOUS
 70
     0
  3
Solid line
 72
    65
 73
     0
 40
0.0
  0
ENDTAB
  0
TABLE
  2
LAYER
  5
2
100
AcDbSymbolTable
 70
4
  0
LAYER
  5
50
100
AcDbSymbolTableRecord
100
AcDbLayerTableRecord
  2
0
 70
0
  6
CONTINUOUS
  0
LAYER
  5
51
100
AcDbSymbolTableRecord
100
AcDbLayerTableRecord
  2
Monete
 70
0
  6
CONTINUOUS
  0
LAYER
  5
52
100
AcDbSymbolTableRecord
100
AcDbLayerTableRecord
  2
Letras
 70
0
  6
CONTINUOUS
  0
LAYER
  5
53
100
AcDbSymbolTableRecord
100
AcDbLayerTableRecord
  2
Circulo
 70
0
  6
CONTINUOUS
  0
ENDTAB
  0
TABLE
  2
STYLE
  5
3
330
0
100
AcDbSymbolTable
 70
     1
  0
STYLE
  5
11
330
3
100
AcDbSymbolTableRecord
100
AcDbTextStyleTableRecord
  2
STANDARD
 70
     0
 40
0.0
 41
1.0
 50
0.0
 71
     0
 42
2.5
  3
txt
  4

  0
ENDTAB
  0
TABLE
  2
VIEW
  5
6
330
0
100
AcDbSymbolTable
 70
     0
  0
ENDTAB
  0
TABLE
  2
UCS
  5
7
330
0
100
AcDbSymbolTable
 70
     0
  0
ENDTAB
  0
TABLE
  2
APPID
  5
9
330
0
100
AcDbSymbolTable
 70
     2
  0
APPID
  5
12
330
9
100
AcDbSymbolTableRecord
100
AcDbRegAppTableRecord
  2
ACAD
 70
     0
  0
ENDTAB
  0
TABLE
  2
DIMSTYLE
  5
A
330
0
100
AcDbSymbolTable
 70
     1
  0
DIMSTYLE
105
27
330
A
100
AcDbSymbolTableRecord
100
AcDbDimStyleTableRecord
  2
ISO-25
 70
     0
  3

  4

  5

  6

  7

 40
1.0
 41
2.5
 42
0.625
 43
3.75
 44
1.25
 45
0.0
 46
0.0
 47
0.0
 48
0.0
140
2.5
141
2.5
142
0.0
143
0.03937007874016
144
1.0
145
0.0
146
1.0
147
0.625
 71
     0
 72
     0
 73
     0
 74
     0
 75
     0
 76
     0
 77
     1
 78
     8
170
     0
171
     3
172
     1
173
     0
174
     0
175
     0
176
     0
177
     0
178
     0
270
     2
271
     2
272
     2
273
     2
274
     3
340
11
275
     0
280
     0
281
     0
282
     0
283
     0
284
     8
285
     0
286
     0
287
     3
288
     0
  0
ENDTAB
  0
TABLE
  2
BLOCK_RECORD
  5
1
330
0
100
AcDbSymbolTable
 70
     1
  0
BLOCK_RECORD
  5
1F
330
1
100
AcDbSymbolTableRecord
100
AcDbBlockTableRecord
  2
*MODEL_SPACE
  0
BLOCK_RECORD
  5
1B
330
1
100
AcDbSymbolTableRecord
100
AcDbBlockTableRecord
  2
*PAPER_SPACE
  0
ENDTAB
  0
ENDSEC
  0
SECTION
  2
BLOCKS
  0
BLOCK
  5
20
330
1F
100
AcDbEntity
  8
0
100
AcDbBlockBegin
  2
*MODEL_SPACE
 70
     0
 10
0.0
 20
0.0
 30
0.0
  3
*MODEL_SPACE
  1

  0
ENDBLK
  5
21
330
1F
100
AcDbEntity
  8
0
100
AcDbBlockEnd
  0
BLOCK
  5
1C
330
1B
100
AcDbEntity
 67
     1
  8
0
100
AcDbBlockBegin
  2
*PAPER_SPACE
  1

  0
ENDBLK
  5
1D
330
1B
100
AcDbEntity
 67
     1
  8
0
100
AcDbBlockEnd
  0
ENDSEC
  0
SECTION
  2
ENTITIES
  0
LWPOLYLINE
  5
100
100
AcDbEntity
  8
Monete
 62
7
100
AcDbPolyline
 90
276
 70
1
 10
17.047074
 20
13.350380
 30
0.0
 10
14.729615
 20
13.650290
 30
0.0
 10
12.613127
 20
14.235440
 30
0.0
 10
9.880185
 20
15.691320
 30
0.0
 10
8.013290
 20
17.645200
 30
0.0
 10
7.560979
 20
18.556720
 30
0.0
 10
7.262598
 20
19.514940
 30
0.0
 10
7.104979
 20
20.429980
 30
0.0
 10
7.078429
 20
21.245050
 30
0.0
 10
8.187395
 20
24.754110
 30
0.0
 10
11.833794
 20
28.024820
 30
0.0
 10
13.431611
 20
29.112820
 30
0.0
 10
14.294734
 20
29.742980
 30
0.0
 10
14.815212
 20
30.332730
 30
0.0
 10
15.276283
 20
31.051770
 30
0.0
 10
15.806310
 20
32.884100
 30
0.0
 10
15.849510
 20
35.766240
 30
0.0
 10
15.871110
 20
41.042290
 30
0.0
 10
16.667160
 20
44.839520
 30
0.0
 10
17.518771
 20
46.967150
 30
0.0
 10
18.679667
 20
49.020220
 30
0.0
 10
20.198854
 20
50.932530
 30
0.0
 10
22.026261
 20
52.592610
 30
0.0
 10
22.339596
 20
52.825570
 30
0.0
 10
22.565280
 20
52.997200
 30
0.0
 10
22.862827
 20
53.191650
 30
0.0
 10
23.348933
 20
53.479470
 30
0.0
 10
23.830553
 20
53.755540
 30
0.0
 10
24.117293
 20
53.921740
 30
0.0
 10
24.186443
 20
54.065740
 30
0.0
 10
23.790847
 20
54.539810
 30
0.0
 10
23.417376
 20
54.962540
 30
0.0
 10
23.185746
 20
55.234450
 30
0.0
 10
23.120416
 20
55.316650
 30
0.0
 10
23.055086
 20
55.398850
 30
0.0
 10
22.907952
 20
55.336050
 30
0.0
 10
22.760817
 20
55.273050
 30
0.0
 10
21.245058
 20
55.075970
 30
0.0
 10
19.724551
 20
55.612670
 30
0.0
 10
18.586027
 20
56.826510
 30
0.0
 10
17.989874
 20
58.510230
 30
0.0
 10
18.149271
 20
60.286680
 30
0.0
 10
19.067528
 20
61.779310
 30
0.0
 10
19.746781
 20
62.305190
 30
0.0
 10
20.150034
 20
62.463840
 30
0.0
 10
20.164884
 20
62.450340
 30
0.0
 10
20.199084
 20
62.484440
 30
0.0
 10
20.528364
 20
62.640050
 30
0.0
 10
21.174197
 20
62.742050
 30
0.0
 10
21.624288
 20
62.841650
 30
0.0
 10
21.783912
 20
63.518440
 30
0.0
 10
22.316193
 20
65.393230
 30
0.0
 10
23.225540
 20
67.049700
 30
0.0
 10
24.069981
 20
67.990920
 30
0.0
 10
25.067865
 20
68.834310
 30
0.0
 10
27.436488
 20
69.960710
 30
0.0
 10
30.630463
 20
70.668830
 30
0.0
 10
31.287194
 20
70.772480
 30
0.0
 10
31.765672
 20
70.868980
 30
0.0
 10
32.380755
 20
71.112230
 30
0.0
 10
32.916189
 20
71.441090
 30
0.0
 10
33.258085
 20
71.821890
 30
0.0
 10
33.571562
 20
72.297460
 30
0.0
 10
33.938170
 20
72.617150
 30
0.0
 10
34.414361
 20
72.333630
 30
0.0
 10
34.752288
 20
71.872860
 30
0.0
 10
34.971018
 20
71.337830
 30
0.0
 10
35.009338
 20
71.200430
 30
0.0
 10
35.047738
 20
71.063030
 30
0.0
 10
35.145598
 20
71.153530
 30
0.0
 10
35.243458
 20
71.244030
 30
0.0
 10
35.685584
 20
71.913870
 30
0.0
 10
35.927789
 20
72.747720
 30
0.0
 10
36.027649
 20
73.236190
 30
0.0
 10
36.270965
 20
73.343890
 30
0.0
 10
36.631017
 20
73.231690
 30
0.0
 10
37.154885
 20
72.794430
 30
0.0
 10
38.049135
 20
71.358990
 30
0.0
 10
38.051435
 20
69.582100
 30
0.0
 10
37.980555
 20
69.215050
 30
0.0
 10
37.976755
 20
69.062370
 30
0.0
 10
38.464015
 20
68.671780
 30
0.0
 10
39.018521
 20
68.091150
 30
0.0
 10
39.694467
 20
66.828020
 30
0.0
 10
40.130495
 20
65.408580
 30
0.0
 10
40.192295
 20
65.080160
 30
0.0
 10
40.233915
 20
64.865550
 30
0.0
 10
40.313295
 20
64.752000
 30
0.0
 10
40.528734
 20
64.690800
 30
0.0
 10
41.518629
 20
64.216530
 30
0.0
 10
42.393228
 20
63.203770
 30
0.0
 10
42.793257
 20
62.430450
 30
0.0
 10
43.033676
 20
61.609930
 30
0.0
 10
43.108146
 20
60.458060
 30
0.0
 10
42.782557
 20
59.438660
 30
0.0
 10
42.375906
 20
58.891250
 30
0.0
 10
41.978570
 20
58.535340
 30
0.0
 10
41.938150
 20
58.448640
 30
0.0
 10
42.004980
 20
58.195600
 30
0.0
 10
42.119475
 20
57.146150
 30
0.0
 10
41.971965
 20
55.998010
 30
0.0
 10
40.642889
 20
53.572230
 30
0.0
 10
38.278128
 20
51.905130
 30
0.0
 10
36.627473
 20
51.356390
 30
0.0
 10
34.900221
 20
51.068260
 30
0.0
 10
34.586084
 20
51.047860
 30
0.0
 10
34.271946
 20
51.027660
 30
0.0
 10
34.135941
 20
50.875330
 30
0.0
 10
33.999936
 20
50.723040
 30
0.0
 10
33.766482
 20
50.399960
 30
0.0
 10
33.676742
 20
50.008120
 30
0.0
 10
33.676352
 20
48.846680
 30
0.0
 10
33.961773
 20
47.864210
 30
0.0
 10
34.482648
 20
47.134050
 30
0.0
 10
35.199311
 20
46.632350
 30
0.0
 10
35.644257
 20
46.463350
 30
0.0
 10
36.171934
 20
46.462350
 30
0.0
 10
36.718497
 20
46.535550
 30
0.0
 10
37.271751
 20
46.746090
 30
0.0
 10
39.054570
 20
47.837740
 30
0.0
 10
41.164008
 20
49.654830
 30
0.0
 10
42.179825
 20
50.527870
 30
0.0
 10
43.099040
 20
51.069250
 30
0.0
 10
44.139149
 20
51.437590
 30
0.0
 10
45.083789
 20
51.481590
 30
0.0
 10
46.425482
 20
51.105660
 30
0.0
 10
47.698841
 20
50.158790
 30
0.0
 10
48.890945
 20
48.549480
 30
0.0
 10
48.895445
 20
47.152650
 30
0.0
 10
48.820895
 20
46.985580
 30
0.0
 10
48.746345
 20
46.818510
 30
0.0
 10
48.820065
 20
46.544600
 30
0.0
 10
48.893795
 20
46.270710
 30
0.0
 10
49.046787
 20
45.148330
 30
0.0
 10
48.931437
 20
44.237450
 30
0.0
 10
48.605764
 20
43.757640
 30
0.0
 10
48.092410
 20
43.570410
 30
0.0
 10
47.168193
 20
43.768100
 30
0.0
 10
46.519090
 20
44.829620
 30
0.0
 10
46.295971
 20
45.364910
 30
0.0
 10
46.126411
 20
45.751310
 30
0.0
 10
46.001521
 20
45.972000
 30
0.0
 10
45.907631
 20
45.908800
 30
0.0
 10
45.324026
 20
45.409510
 30
0.0
 10
44.319752
 20
45.191200
 30
0.0
 10
43.699276
 20
45.098500
 30
0.0
 10
43.240695
 20
44.933570
 30
0.0
 10
42.749609
 20
44.597280
 30
0.0
 10
42.897779
 20
44.161560
 30
0.0
 10
43.705664
 20
42.882650
 30
0.0
 10
44.259195
 20
41.739710
 30
0.0
 10
44.434005
 20
41.220730
 30
0.0
 10
44.471355
 20
40.579170
 30
0.0
 10
44.448255
 20
39.965250
 30
0.0
 10
44.275860
 20
39.665720
 30
0.0
 10
43.525762
 20
39.184750
 30
0.0
 10
42.722968
 20
39.286760
 30
0.0
 10
42.285411
 20
39.667550
 30
0.0
 10
41.991237
 20
40.093070
 30
0.0
 10
41.924187
 20
40.149770
 30
0.0
 10
41.756158
 20
39.956440
 30
0.0
 10
41.330397
 20
39.603170
 30
0.0
 10
40.827836
 20
39.456170
 30
0.0
 10
40.686776
 20
39.433570
 30
0.0
 10
40.688276
 20
39.344670
 30
0.0
 10
40.891226
 20
38.620990
 30
0.0
 10
40.946276
 20
37.533520
 30
0.0
 10
40.933976
 20
36.718150
 30
0.0
 10
40.900676
 20
36.173200
 30
0.0
 10
40.876526
 20
35.997020
 30
0.0
 10
40.852296
 20
35.820850
 30
0.0
 10
41.643795
 20
35.799350
 30
0.0
 10
42.435301
 20
35.777850
 30
0.0
 10
44.919551
 20
35.688250
 30
0.0
 10
47.632154
 20
35.544100
 30
0.0
 10
48.439800
 20
35.503800
 30
0.0
 10
48.791596
 20
35.501800
 30
0.0
 10
49.046731
 20
36.758520
 30
0.0
 10
49.954808
 20
41.753590
 30
0.0
 10
50.165815
 20
42.920980
 30
0.0
 10
50.353952
 20
43.958460
 30
0.0
 10
50.520632
 20
44.884910
 30
0.0
 10
50.680068
 20
45.785360
 30
0.0
 10
51.300498
 20
49.103920
 30
0.0
 10
51.737148
 20
49.918440
 30
0.0
 10
52.906332
 20
50.364870
 30
0.0
 10
59.434024
 20
50.415570
 30
0.0
 10
64.999084
 20
50.399070
 30
0.0
 10
66.400280
 20
50.324070
 30
0.0
 10
66.832521
 20
50.000160
 30
0.0
 10
67.078409
 20
49.550730
 30
0.0
 10
66.703978
 20
46.292100
 30
0.0
 10
65.496724
 20
39.989670
 30
0.0
 10
64.586868
 20
35.884290
 30
0.0
 10
64.099203
 20
34.182830
 30
0.0
 10
63.700104
 20
33.741770
 30
0.0
 10
62.986921
 20
33.528080
 30
0.0
 10
57.207768
 20
33.273330
 30
0.0
 10
49.699779
 20
33.190430
 30
0.0
 10
44.246575
 20
33.294530
 30
0.0
 10
40.548899
 20
33.442280
 30
0.0
 10
40.250900
 20
33.461280
 30
0.0
 10
39.952903
 20
33.480180
 30
0.0
 10
39.832498
 20
33.288990
 30
0.0
 10
39.712108
 20
33.097830
 30
0.0
 10
38.660758
 20
31.733980
 30
0.0
 10
37.373568
 20
30.552530
 30
0.0
 10
37.016126
 20
30.269520
 30
0.0
 10
36.867461
 20
30.131520
 30
0.0
 10
37.016126
 20
30.053820
 30
0.0
 10
37.373568
 20
29.915820
 30
0.0
 10
39.824220
 20
28.488900
 30
0.0
 10
40.785720
 20
26.742640
 30
0.0
 10
40.746950
 20
26.457560
 30
0.0
 10
40.592713
 20
26.216810
 30
0.0
 10
40.103164
 20
25.913520
 30
0.0
 10
39.289924
 20
25.859620
 30
0.0
 10
39.031533
 20
25.874620
 30
0.0
 10
38.773143
 20
25.889620
 30
0.0
 10
38.754243
 20
25.798420
 30
0.0
 10
38.735343
 20
25.707220
 30
0.0
 10
38.332982
 20
25.217600
 30
0.0
 10
37.507892
 20
25.029450
 30
0.0
 10
37.220866
 20
24.994350
 30
0.0
 10
36.968799
 20
24.896750
 30
0.0
 10
35.818432
 20
24.751390
 30
0.0
 10
33.793888
 20
25.000740
 30
0.0
 10
31.407393
 20
25.335160
 30
0.0
 10
28.247255
 20
25.469410
 30
0.0
 10
25.600758
 20
25.577860
 30
0.0
 10
24.473064
 20
25.934210
 30
0.0
 10
23.871923
 20
26.353410
 30
0.0
 10
23.432047
 20
26.818630
 30
0.0
 10
23.310008
 20
26.885430
 30
0.0
 10
22.916617
 20
26.690020
 30
0.0
 10
20.728025
 20
26.025690
 30
0.0
 10
18.675497
 20
26.291240
 30
0.0
 10
18.463375
 20
26.378640
 30
0.0
 10
18.349435
 20
26.414940
 30
0.0
 10
17.858049
 20
26.680610
 30
0.0
 10
17.200546
 20
27.142000
 30
0.0
 10
17.032869
 20
27.280010
 30
0.0
 10
16.865197
 20
27.418010
 30
0.0
 10
16.616910
 20
27.194190
 30
0.0
 10
16.368629
 20
26.970370
 30
0.0
 10
15.466378
 20
26.283120
 30
0.0
 10
14.100432
 20
25.438360
 30
0.0
 10
12.930521
 20
24.654120
 30
0.0
 10
12.023746
 20
23.878240
 30
0.0
 10
11.059036
 20
21.882050
 30
0.0
 10
11.459603
 20
19.706390
 30
0.0
 10
11.862167
 20
19.044060
 30
0.0
 10
12.378272
 20
18.491330
 30
0.0
 10
13.875258
 20
17.490010
 30
0.0
 10
15.904710
 20
16.857200
 30
0.0
 10
17.941164
 20
16.734340
 30
0.0
 10
19.986245
 20
16.819440
 30
0.0
 10
21.743233
 20
17.448620
 30
0.0
 10
22.556152
 20
18.489450
 30
0.0
 10
22.626052
 20
19.084430
 30
0.0
 10
22.531632
 20
19.863230
 30
0.0
 10
22.473282
 20
20.316620
 30
0.0
 10
22.474032
 20
20.650690
 30
0.0
 10
23.708091
 20
21.511870
 30
0.0
 10
25.592221
 20
20.635810
 30
0.0
 10
26.201191
 20
19.660250
 30
0.0
 10
26.379781
 20
18.414310
 30
0.0
 10
26.284371
 20
17.435320
 30
0.0
 10
25.891310
 20
16.587410
 30
0.0
 10
24.645019
 20
15.231480
 30
0.0
 10
22.728692
 20
14.203160
 30
0.0
 10
20.619743
 20
13.609340
 30
0.0
 10
18.222688
 20
13.355990
 30
0.0
 10
17.554128
 20
13.343990
 30
0.0
 10
17.047204
 20
13.352990
 30
0.0
 10
17.047151
 20
13.352930
 30
0.0
  0
LWPOLYLINE
  5
101
100
AcDbEntity
  8
Monete
 62
7
100
AcDbPolyline
 90
60
 70
1
 10
36.390630
 20
25.506020
 30
0.0
 10
36.107152
 20
25.857790
 30
0.0
 10
35.494701
 20
26.282420
 30
0.0
 10
34.568473
 20
26.649290
 30
0.0
 10
33.788030
 20
26.854380
 30
0.0
 10
33.185720
 20
27.033950
 30
0.0
 10
33.080510
 20
27.423160
 30
0.0
 10
33.321343
 20
27.615480
 30
0.0
 10
33.843907
 20
27.577780
 30
0.0
 10
35.483228
 20
27.086550
 30
0.0
 10
36.673186
 20
26.331970
 30
0.0
 10
36.955210
 20
26.038190
 30
0.0
 10
37.096285
 20
25.843760
 30
0.0
 10
37.192195
 20
25.744060
 30
0.0
 10
37.463396
 20
25.720160
 30
0.0
 10
37.894233
 20
25.781560
 30
0.0
 10
38.042448
 20
25.960050
 30
0.0
 10
37.487979
 20
26.863320
 30
0.0
 10
36.475140
 20
27.786600
 30
0.0
 10
34.305290
 20
28.663940
 30
0.0
 10
31.283439
 20
29.247130
 30
0.0
 10
30.851019
 20
29.314330
 30
0.0
 10
30.636721
 20
29.375130
 30
0.0
 10
30.446326
 20
29.363130
 30
0.0
 10
30.138247
 20
29.146790
 30
0.0
 10
29.763428
 20
28.956480
 30
0.0
 10
29.479499
 20
29.042580
 30
0.0
 10
29.219025
 20
29.246630
 30
0.0
 10
28.908269
 20
29.281130
 30
0.0
 10
28.667376
 20
29.153330
 30
0.0
 10
28.340690
 20
28.899500
 30
0.0
 10
27.792089
 20
28.557700
 30
0.0
 10
27.384583
 20
28.814120
 30
0.0
 10
27.190985
 20
29.012510
 30
0.0
 10
27.027889
 20
29.125460
 30
0.0
 10
26.608047
 20
29.091860
 30
0.0
 10
26.064199
 20
28.742800
 30
0.0
 10
25.501181
 20
28.338770
 30
0.0
 10
25.123697
 20
28.269070
 30
0.0
 10
24.894767
 20
28.217570
 30
0.0
 10
24.463584
 20
27.834840
 30
0.0
 10
24.220952
 20
27.599230
 30
0.0
 10
23.978326
 20
27.363600
 30
0.0
 10
24.040876
 20
27.251550
 30
0.0
 10
24.103426
 20
27.139500
 30
0.0
 10
24.551611
 20
26.714570
 30
0.0
 10
25.308024
 20
26.348950
 30
0.0
 10
26.019529
 20
26.215900
 30
0.0
 10
28.181413
 20
26.155300
 30
0.0
 10
31.204974
 20
26.049850
 30
0.0
 10
33.195987
 20
25.810580
 30
0.0
 10
33.874250
 20
25.710680
 30
0.0
 10
34.194732
 20
25.691980
 30
0.0
 10
34.267702
 20
25.697980
 30
0.0
 10
34.350722
 20
25.658380
 30
0.0
 10
35.097702
 20
25.505000
 30
0.0
 10
36.078169
 20
25.426200
 30
0.0
 10
36.289055
 20
25.453500
 30
0.0
 10
36.390590
 20
25.505600
 30
0.0
 10
36.390590
 20
25.505610
 30
0.0
  0
LWPOLYLINE
  5
102
100
AcDbEntity
  8
Monete
 62
7
100
AcDbPolyline
 90
24
 70
1
 10
39.940572
 20
26.604260
 30
0.0
 10
40.056372
 20
26.827780
 30
0.0
 10
39.859212
 20
27.306740
 30
0.0
 10
38.538677
 20
28.556190
 30
0.0
 10
36.335160
 20
29.506500
 30
0.0
 10
36.085582
 20
29.576900
 30
0.0
 10
35.836012
 20
29.647300
 30
0.0
 10
35.671372
 20
29.579000
 30
0.0
 10
35.506746
 20
29.510600
 30
0.0
 10
35.211584
 20
29.414100
 30
0.0
 10
34.964293
 20
29.373900
 30
0.0
 10
34.840213
 20
29.310600
 30
0.0
 10
35.397621
 20
29.089440
 30
0.0
 10
36.015029
 20
28.850680
 30
0.0
 10
36.703702
 20
28.495890
 30
0.0
 10
37.594299
 20
27.840020
 30
0.0
 10
38.334647
 20
27.026450
 30
0.0
 10
38.579598
 20
26.727640
 30
0.0
 10
38.818098
 20
26.629840
 30
0.0
 10
39.004353
 20
26.596640
 30
0.0
 10
39.119973
 20
26.570340
 30
0.0
 10
39.542929
 20
26.546240
 30
0.0
 10
39.940572
 20
26.604240
 30
0.0
 10
39.940572
 20
26.604220
 30
0.0
  0
LWPOLYLINE
  5
103
100
AcDbEntity
  8
Monete
 62
7
100
AcDbPolyline
 90
16
 70
1
 10
49.432771
 20
34.145870
 30
0.0
 10
48.922102
 20
34.725130
 30
0.0
 10
48.266947
 20
34.819630
 30
0.0
 10
44.662420
 20
35.009660
 30
0.0
 10
41.856014
 20
35.087360
 30
0.0
 10
39.778338
 20
35.103060
 30
0.0
 10
39.358121
 20
34.989660
 30
0.0
 10
39.248186
 20
34.815220
 30
0.0
 10
39.217956
 20
34.537470
 30
0.0
 10
39.239626
 20
34.297990
 30
0.0
 10
39.299546
 20
34.195240
 30
0.0
 10
42.615142
 20
34.033160
 30
0.0
 10
47.960143
 20
33.920060
 30
0.0
 10
48.788490
 20
33.914060
 30
0.0
 10
49.616828
 20
33.908060
 30
0.0
 10
49.524808
 20
34.026110
 30
0.0
  0
LWPOLYLINE
  5
104
100
AcDbEntity
  8
Monete
 62
7
100
AcDbPolyline
 90
34
 70
1
 10
57.633781
 20
33.973810
 30
0.0
 10
61.673286
 20
34.125870
 30
0.0
 10
63.259779
 20
34.328930
 30
0.0
 10
63.478381
 20
34.583380
 30
0.0
 10
63.743551
 20
35.548510
 30
0.0
 10
65.219351
 20
42.263700
 30
0.0
 10
66.250985
 20
48.208970
 30
0.0
 10
66.373054
 20
49.321110
 30
0.0
 10
66.241655
 20
49.593290
 30
0.0
 10
65.332045
 20
49.705340
 30
0.0
 10
59.972427
 20
49.721640
 30
0.0
 10
54.736483
 20
49.705340
 30
0.0
 10
53.731850
 20
49.611240
 30
0.0
 10
53.599505
 20
49.295990
 30
0.0
 10
53.432494
 20
48.587550
 30
0.0
 10
53.001230
 20
46.433040
 30
0.0
 10
52.578079
 20
44.272350
 30
0.0
 10
52.357015
 20
43.130940
 30
0.0
 10
52.150615
 20
42.067480
 30
0.0
 10
51.842306
 20
40.443650
 30
0.0
 10
51.464267
 20
38.350680
 30
0.0
 10
51.274930
 20
37.294310
 30
0.0
 10
51.135190
 20
36.523790
 30
0.0
 10
51.033835
 20
35.956830
 30
0.0
 10
50.936695
 20
35.389850
 30
0.0
 10
50.844985
 20
34.855280
 30
0.0
 10
50.756665
 20
34.366170
 30
0.0
 10
50.713685
 20
34.137800
 30
0.0
 10
50.670715
 20
33.909440
 30
0.0
 10
51.766585
 20
33.909760
 30
0.0
 10
52.862456
 20
33.910070
 30
0.0
 10
55.168117
 20
33.928970
 30
0.0
 10
57.633737
 20
33.973670
 30
0.0
 10
57.633729
 20
33.973640
 30
0.0
  0
LWPOLYLINE
  5
105
100
AcDbEntity
  8
Monete
 62
7
100
AcDbPolyline
 90
12
 70
1
 10
57.470522
 20
38.968520
 30
0.0
 10
56.624919
 20
39.769290
 30
0.0
 10
56.275688
 20
41.091220
 30
0.0
 10
56.389358
 20
42.263570
 30
0.0
 10
56.909851
 20
43.257710
 30
0.0
 10
57.941290
 20
44.010820
 30
0.0
 10
59.144269
 20
44.093020
 30
0.0
 10
60.332473
 20
42.823210
 30
0.0
 10
60.282073
 20
40.609830
 30
0.0
 10
59.483943
 20
39.343190
 30
0.0
 10
58.222540
 20
38.841960
 30
0.0
 10
57.815883
 20
38.850960
 30
0.0
  0
LWPOLYLINE
  5
106
100
AcDbEntity
  8
Monete
 62
7
100
AcDbPolyline
 90
12
 70
1
 10
58.673500
 20
39.683130
 30
0.0
 10
59.226709
 20
40.158380
 30
0.0
 10
59.621622
 20
40.930420
 30
0.0
 10
59.719242
 20
41.931030
 30
0.0
 10
59.543268
 20
42.831450
 30
0.0
 10
59.167106
 20
43.281520
 30
0.0
 10
58.666158
 20
43.422070
 30
0.0
 10
57.760104
 20
43.081380
 30
0.0
 10
57.147736
 20
42.196710
 30
0.0
 10
57.157336
 20
40.406250
 30
0.0
 10
58.127057
 20
39.516520
 30
0.0
 10
58.369824
 20
39.565220
 30
0.0
  0
LWPOLYLINE
  5
107
100
AcDbEntity
  8
Monete
 62
7
100
AcDbPolyline
 90
34
 70
1
 10
50.150131
 20
34.994910
 30
0.0
 10
50.247561
 20
35.644080
 30
0.0
 10
50.420556
 20
36.649980
 30
0.0
 10
50.629762
 20
37.817380
 30
0.0
 10
50.814157
 20
38.854860
 30
0.0
 10
51.434842
 20
42.209300
 30
0.0
 10
52.156125
 20
45.941950
 30
0.0
 10
52.360680
 20
46.973910
 30
0.0
 10
52.579599
 20
48.083840
 30
0.0
 10
52.758009
 20
48.978340
 30
0.0
 10
52.865168
 20
49.492380
 30
0.0
 10
52.893368
 20
49.613890
 30
0.0
 10
52.921568
 20
49.735390
 30
0.0
 10
52.823428
 20
49.716490
 30
0.0
 10
52.725298
 20
49.697490
 30
0.0
 10
52.180429
 20
49.383170
 30
0.0
 10
51.919880
 20
48.682150
 30
0.0
 10
51.822680
 20
48.098850
 30
0.0
 10
51.651949
 20
47.138740
 30
0.0
 10
51.086988
 20
44.021680
 30
0.0
 10
50.811671
 20
42.477000
 30
0.0
 10
50.624523
 20
41.426540
 30
0.0
 10
50.415535
 20
40.272120
 30
0.0
 10
49.939411
 20
37.643080
 30
0.0
 10
49.624262
 20
35.856290
 30
0.0
 10
49.567482
 20
35.522510
 30
0.0
 10
49.510702
 20
35.188730
 30
0.0
 10
49.639492
 20
35.030050
 30
0.0
 10
49.768282
 20
34.871390
 30
0.0
 10
49.962051
 20
34.653940
 30
0.0
 10
50.066226
 20
34.576840
 30
0.0
 10
50.107556
 20
34.709000
 30
0.0
 10
50.150236
 20
34.994740
 30
0.0
 10
50.150221
 20
34.994740
 30
0.0
  0
LWPOLYLINE
  5
108
100
AcDbEntity
  8
Monete
 62
7
100
AcDbPolyline
 90
70
 70
1
 10
39.142315
 20
39.542380
 30
0.0
 10
39.267880
 20
39.997590
 30
0.0
 10
39.155815
 20
40.733810
 30
0.0
 10
39.058165
 20
41.298210
 30
0.0
 10
39.234079
 20
41.525630
 30
0.0
 10
39.572906
 20
41.512130
 30
0.0
 10
39.866960
 20
41.080060
 30
0.0
 10
40.093129
 20
40.693620
 30
0.0
 10
40.334014
 20
40.384000
 30
0.0
 10
40.578013
 20
40.179290
 30
0.0
 10
40.793390
 20
40.168790
 30
0.0
 10
41.091021
 20
40.289400
 30
0.0
 10
41.237166
 20
40.565460
 30
0.0
 10
41.244966
 20
41.089720
 30
0.0
 10
41.061463
 20
41.761490
 30
0.0
 10
40.735542
 20
42.376620
 30
0.0
 10
40.450918
 20
42.727980
 30
0.0
 10
40.362538
 20
42.813480
 30
0.0
 10
40.222513
 20
43.019060
 30
0.0
 10
40.134083
 20
43.164560
 30
0.0
 10
40.045653
 20
43.310060
 30
0.0
 10
40.124533
 20
43.368560
 30
0.0
 10
40.203423
 20
43.427060
 30
0.0
 10
40.514007
 20
43.533420
 30
0.0
 10
40.853606
 20
43.340590
 30
0.0
 10
41.437894
 20
42.657170
 30
0.0
 10
42.134622
 20
41.409360
 30
0.0
 10
42.589423
 20
40.556550
 30
0.0
 10
42.894029
 20
40.060520
 30
0.0
 10
43.092412
 20
39.866210
 30
0.0
 10
43.293734
 20
39.859210
 30
0.0
 10
43.465898
 20
39.890610
 30
0.0
 10
43.596082
 20
39.910010
 30
0.0
 10
43.670552
 20
39.946110
 30
0.0
 10
43.708882
 20
40.017710
 30
0.0
 10
43.730032
 20
40.156610
 30
0.0
 10
43.763182
 20
40.354810
 30
0.0
 10
43.382415
 20
41.926470
 30
0.0
 10
42.059098
 20
44.042950
 30
0.0
 10
41.262800
 20
44.950030
 30
0.0
 10
40.549362
 20
45.440160
 30
0.0
 10
39.740380
 20
45.675260
 30
0.0
 10
38.882379
 20
45.558560
 30
0.0
 10
38.522288
 20
45.453410
 30
0.0
 10
38.331039
 20
45.407510
 30
0.0
 10
38.247639
 20
45.372910
 30
0.0
 10
38.146809
 20
45.294710
 30
0.0
 10
38.051009
 20
45.217610
 30
0.0
 10
37.979759
 20
45.185510
 30
0.0
 10
37.416186
 20
44.709400
 30
0.0
 10
36.611952
 20
43.900020
 30
0.0
 10
36.343189
 20
43.566920
 30
0.0
 10
36.410309
 20
43.439720
 30
0.0
 10
36.529604
 20
43.226090
 30
0.0
 10
36.345052
 20
42.823130
 30
0.0
 10
36.151888
 20
42.320770
 30
0.0
 10
36.413542
 20
42.034120
 30
0.0
 10
36.702404
 20
41.810280
 30
0.0
 10
36.612634
 20
41.510110
 30
0.0
 10
36.482359
 20
41.192860
 30
0.0
 10
36.583774
 20
40.953950
 30
0.0
 10
36.871280
 20
40.843400
 30
0.0
 10
37.246340
 20
40.945850
 30
0.0
 10
37.601698
 20
40.945190
 30
0.0
 10
37.904480
 20
40.358570
 30
0.0
 10
38.211869
 20
39.691340
 30
0.0
 10
38.523936
 20
39.393650
 30
0.0
 10
38.844232
 20
39.396650
 30
0.0
 10
39.142874
 20
39.540800
 30
0.0
 10
39.142829
 20
39.540830
 30
0.0
  0
LWPOLYLINE
  5
109
100
AcDbEntity
  8
Monete
 62
7
100
AcDbPolyline
 90
66
 70
1
 10
48.212107
 20
44.411560
 30
0.0
 10
48.328867
 20
45.137260
 30
0.0
 10
48.170293
 20
46.130790
 30
0.0
 10
47.804233
 20
47.035760
 30
0.0
 10
47.343537
 20
47.829990
 30
0.0
 10
47.225248
 20
47.995890
 30
0.0
 10
47.106943
 20
48.161800
 30
0.0
 10
47.164173
 20
48.284200
 30
0.0
 10
47.221393
 20
48.406600
 30
0.0
 10
47.439095
 20
48.720080
 30
0.0
 10
47.703336
 20
48.572780
 30
0.0
 10
47.902348
 20
48.336150
 30
0.0
 10
48.087425
 20
48.055880
 30
0.0
 10
48.175005
 20
47.900220
 30
0.0
 10
48.262585
 20
47.744570
 30
0.0
 10
48.272635
 20
47.842470
 30
0.0
 10
48.282685
 20
47.940370
 30
0.0
 10
48.142645
 20
48.436200
 30
0.0
 10
47.749098
 20
49.059930
 30
0.0
 10
47.008360
 20
49.806280
 30
0.0
 10
46.197631
 20
50.418400
 30
0.0
 10
45.220501
 20
50.763110
 30
0.0
 10
43.789251
 20
50.643700
 30
0.0
 10
43.638913
 20
50.582300
 30
0.0
 10
43.415054
 20
50.457800
 30
0.0
 10
43.209148
 20
50.338100
 30
0.0
 10
43.102048
 20
50.288300
 30
0.0
 10
42.530592
 20
49.892490
 30
0.0
 10
41.510875
 20
48.998920
 30
0.0
 10
40.903795
 20
48.431200
 30
0.0
 10
40.580290
 20
48.130670
 30
0.0
 10
40.469740
 20
47.908500
 30
0.0
 10
40.684937
 20
47.733840
 30
0.0
 10
41.006591
 20
47.447810
 30
0.0
 10
40.839437
 20
47.019740
 30
0.0
 10
40.755047
 20
46.879180
 30
0.0
 10
40.719947
 20
46.752130
 30
0.0
 10
40.867877
 20
46.498220
 30
0.0
 10
41.193416
 20
46.381670
 30
0.0
 10
41.520363
 20
46.297970
 30
0.0
 10
41.600823
 20
45.960160
 30
0.0
 10
41.647243
 20
45.662780
 30
0.0
 10
41.880245
 20
45.384140
 30
0.0
 10
42.199738
 20
45.162640
 30
0.0
 10
42.636155
 20
45.405200
 30
0.0
 10
43.282911
 20
45.716450
 30
0.0
 10
44.181353
 20
45.876280
 30
0.0
 10
44.925308
 20
46.025380
 30
0.0
 10
45.262884
 20
46.269710
 30
0.0
 10
45.152889
 20
46.619330
 30
0.0
 10
44.733197
 20
46.947890
 30
0.0
 10
44.371441
 20
47.073440
 30
0.0
 10
43.919836
 20
47.127640
 30
0.0
 10
43.368382
 20
47.224240
 30
0.0
 10
43.170105
 20
47.510940
 30
0.0
 10
43.384179
 20
48.184530
 30
0.0
 10
44.083097
 20
48.422990
 30
0.0
 10
45.358781
 20
47.873810
 30
0.0
 10
46.395860
 20
46.765260
 30
0.0
 10
46.656492
 20
46.287700
 30
0.0
 10
46.922486
 20
45.721120
 30
0.0
 10
47.513892
 20
44.469290
 30
0.0
 10
47.914213
 20
44.240710
 30
0.0
 10
48.080345
 20
44.281810
 30
0.0
 10
48.212090
 20
44.411260
 30
0.0
 10
48.212090
 20
44.411240
 30
0.0
  0
LWPOLYLINE
  5
10a
100
AcDbEntity
  8
Monete
 62
7
100
AcDbPolyline
 90
44
 70
1
 10
34.632861
 20
51.739740
 30
0.0
 10
38.472009
 20
52.804380
 30
0.0
 10
40.810242
 20
55.042800
 30
0.0
 10
41.195128
 20
55.962350
 30
0.0
 10
41.409808
 20
56.920630
 30
0.0
 10
41.355058
 20
57.733390
 30
0.0
 10
41.082628
 20
58.559780
 30
0.0
 10
40.605658
 20
59.201510
 30
0.0
 10
39.932307
 20
59.775800
 30
0.0
 10
39.787362
 20
59.869900
 30
0.0
 10
39.642402
 20
59.963900
 30
0.0
 10
39.653802
 20
60.844570
 30
0.0
 10
39.665052
 20
61.725250
 30
0.0
 10
39.601822
 20
64.140760
 30
0.0
 10
39.316823
 20
65.290110
 30
0.0
 10
38.811307
 20
65.684390
 30
0.0
 10
37.975085
 20
65.838650
 30
0.0
 10
37.079495
 20
65.761550
 30
0.0
 10
36.287389
 20
65.408120
 30
0.0
 10
35.513868
 20
64.781640
 30
0.0
 10
34.935677
 20
63.895290
 30
0.0
 10
34.531210
 20
63.445630
 30
0.0
 10
33.893889
 20
63.901980
 30
0.0
 10
31.441567
 20
65.378330
 30
0.0
 10
28.932497
 20
65.050010
 30
0.0
 10
27.782418
 20
64.277680
 30
0.0
 10
27.014986
 20
63.237040
 30
0.0
 10
26.668974
 20
60.831740
 30
0.0
 10
27.683896
 20
58.257600
 30
0.0
 10
27.896822
 20
57.929730
 30
0.0
 10
27.985462
 20
57.760670
 30
0.0
 10
27.883747
 20
57.589530
 30
0.0
 10
27.638984
 20
57.256690
 30
0.0
 10
27.003358
 20
56.185190
 30
0.0
 10
26.810893
 20
55.105260
 30
0.0
 10
27.132095
 20
53.671190
 30
0.0
 10
28.002637
 20
52.598600
 30
0.0
 10
29.400203
 20
52.091950
 30
0.0
 10
31.446739
 20
51.764690
 30
0.0
 10
31.846759
 20
51.728390
 30
0.0
 10
32.029032
 20
51.698990
 30
0.0
 10
33.125922
 20
51.676690
 30
0.0
 10
34.632900
 20
51.739490
 30
0.0
 10
34.632885
 20
51.739660
 30
0.0
  0
LWPOLYLINE
  5
10b
100
AcDbEntity
  8
Monete
 62
7
100
AcDbPolyline
 90
54
 70
1
 10
33.111963
 20
54.356970
 30
0.0
 10
31.734017
 20
54.809140
 30
0.0
 10
30.991682
 20
55.589640
 30
0.0
 10
30.910952
 20
56.325390
 30
0.0
 10
31.323909
 20
56.651360
 30
0.0
 10
31.565522
 20
56.533150
 30
0.0
 10
31.621922
 20
56.131510
 30
0.0
 10
31.650722
 20
55.851530
 30
0.0
 10
31.832237
 20
55.618200
 30
0.0
 10
32.798194
 20
55.149380
 30
0.0
 10
34.174610
 20
54.950900
 30
0.0
 10
34.599951
 20
55.117130
 30
0.0
 10
34.586301
 20
56.034970
 30
0.0
 10
34.425178
 20
57.231970
 30
0.0
 10
34.008320
 20
57.532130
 30
0.0
 10
33.170373
 20
58.011840
 30
0.0
 10
32.673971
 20
58.450300
 30
0.0
 10
32.640601
 20
58.601380
 30
0.0
 10
32.712451
 20
58.759140
 30
0.0
 10
32.975086
 20
58.914360
 30
0.0
 10
33.319269
 20
58.775760
 30
0.0
 10
33.921100
 20
58.374390
 30
0.0
 10
34.466028
 20
58.097770
 30
0.0
 10
34.705833
 20
58.045470
 30
0.0
 10
34.931733
 20
58.115070
 30
0.0
 10
35.397416
 20
58.427760
 30
0.0
 10
35.767242
 20
58.844930
 30
0.0
 10
35.890557
 20
59.022250
 30
0.0
 10
35.981987
 20
59.123050
 30
0.0
 10
36.337173
 20
59.120050
 30
0.0
 10
36.540528
 20
58.834230
 30
0.0
 10
36.151839
 20
58.184170
 30
0.0
 10
35.401156
 20
57.562150
 30
0.0
 10
35.237454
 20
57.458050
 30
0.0
 10
35.169654
 20
57.377250
 30
0.0
 10
35.198304
 20
57.128200
 30
0.0
 10
35.266334
 20
56.619850
 30
0.0
 10
35.334584
 20
56.013560
 30
0.0
 10
35.363764
 20
55.528930
 30
0.0
 10
35.426984
 20
55.172040
 30
0.0
 10
36.014572
 20
55.337550
 30
0.0
 10
36.566070
 20
55.569280
 30
0.0
 10
37.047646
 20
55.883970
 30
0.0
 10
37.420644
 20
56.282440
 30
0.0
 10
37.503704
 20
56.706930
 30
0.0
 10
37.621169
 20
57.186670
 30
0.0
 10
38.012033
 20
57.190670
 30
0.0
 10
38.205795
 20
56.931970
 30
0.0
 10
38.223345
 20
56.458730
 30
0.0
 10
37.264228
 20
55.161520
 30
0.0
 10
35.013604
 20
54.353080
 30
0.0
 10
34.063630
 20
54.267180
 30
0.0
 10
33.111998
 20
54.356180
 30
0.0
 10
33.111991
 20
54.356340
 30
0.0
  0
LWPOLYLINE
  5
10c
100
AcDbEntity
  8
Monete
 62
7
100
AcDbPolyline
 90
10
 70
1
 10
30.107962
 20
59.585070
 30
0.0
 10
29.514899
 20
60.136970
 30
0.0
 10
29.371589
 20
60.990950
 30
0.0
 10
29.744760
 20
61.876390
 30
0.0
 10
30.622808
 20
62.195040
 30
0.0
 10
31.375719
 20
61.916520
 30
0.0
 10
31.837442
 20
61.191010
 30
0.0
 10
31.633855
 20
60.022930
 30
0.0
 10
30.630391
 20
59.486820
 30
0.0
 10
30.342241
 20
59.515620
 30
0.0
  0
LWPOLYLINE
  5
10d
100
AcDbEntity
  8
Monete
 62
7
100
AcDbPolyline
 90
10
 70
1
 10
37.088258
 20
60.295450
 30
0.0
 10
36.612255
 20
60.842320
 30
0.0
 10
36.495045
 20
61.606770
 30
0.0
 10
36.673012
 20
62.154170
 30
0.0
 10
37.070693
 20
62.553980
 30
0.0
 10
38.122855
 20
62.499680
 30
0.0
 10
38.649521
 20
61.407570
 30
0.0
 10
38.550271
 20
60.835880
 30
0.0
 10
38.243791
 20
60.403660
 30
0.0
 10
37.683968
 20
60.186070
 30
0.0
  0
LWPOLYLINE
  5
10e
100
AcDbEntity
  8
Monete
 62
7
100
AcDbPolyline
 90
10
 70
1
 10
22.499992
 20
55.943870
 30
0.0
 10
23.193338
 20
56.967710
 30
0.0
 10
22.700452
 20
58.761750
 30
0.0
 10
21.137697
 20
60.433510
 30
0.0
 10
19.291075
 20
60.348310
 30
0.0
 10
18.808631
 20
59.883330
 30
0.0
 10
18.690221
 20
59.045300
 30
0.0
 10
18.764321
 20
58.221060
 30
0.0
 10
19.079419
 20
57.422670
 30
0.0
 10
20.596477
 20
55.942320
 30
0.0
  0
LWPOLYLINE
  5
10f
100
AcDbEntity
  8
Monete
 62
7
100
AcDbPolyline
 90
20
 70
1
 10
41.890131
 20
59.416780
 30
0.0
 10
42.258622
 20
60.036490
 30
0.0
 10
42.350732
 20
60.840620
 30
0.0
 10
42.330552
 20
61.358540
 30
0.0
 10
42.280372
 20
61.719130
 30
0.0
 10
41.835381
 20
62.713420
 30
0.0
 10
41.244456
 20
63.511320
 30
0.0
 10
40.815620
 20
63.823890
 30
0.0
 10
40.462340
 20
64.021930
 30
0.0
 10
40.436090
 20
63.476030
 30
0.0
 10
40.423790
 20
62.163540
 30
0.0
 10
40.434890
 20
60.851060
 30
0.0
 10
40.464960
 20
60.305160
 30
0.0
 10
40.947022
 20
59.888940
 30
0.0
 10
41.473395
 20
59.334160
 30
0.0
 10
41.566915
 20
59.219110
 30
0.0
 10
41.636435
 20
59.171210
 30
0.0
 10
41.732595
 20
59.243210
 30
0.0
 10
41.890342
 20
59.416640
 30
0.0
 10
41.890327
 20
59.416640
 30
0.0
  0
LWPOLYLINE
  5
110
100
AcDbEntity
  8
Monete
 62
7
100
AcDbPolyline
 90
30
 70
1
 10
54.160190
 20
52.262620
 30
0.0
 10
54.034430
 20
52.650680
 30
0.0
 10
53.854363
 20
53.465670
 30
0.0
 10
53.745013
 20
54.025200
 30
0.0
 10
53.635663
 20
54.584710
 30
0.0
 10
53.549503
 20
54.569310
 30
0.0
 10
53.463353
 20
54.553810
 30
0.0
 10
53.232908
 20
54.507910
 30
0.0
 10
52.920817
 20
54.441110
 30
0.0
 10
52.601730
 20
54.391010
 30
0.0
 10
52.447365
 20
54.442010
 30
0.0
 10
52.347331
 20
54.694150
 30
0.0
 10
52.432861
 20
54.942820
 30
0.0
 10
53.670798
 20
55.335180
 30
0.0
 10
55.174534
 20
55.580180
 30
0.0
 10
55.438880
 20
55.550280
 30
0.0
 10
55.582700
 20
55.422630
 30
0.0
 10
55.656950
 20
55.265290
 30
0.0
 10
55.583380
 20
55.108640
 30
0.0
 10
55.369733
 20
54.941370
 30
0.0
 10
54.796389
 20
54.857670
 30
0.0
 10
54.513458
 20
54.822870
 30
0.0
 10
54.378758
 20
54.791970
 30
0.0
 10
54.422628
 20
54.334820
 30
0.0
 10
54.642175
 20
53.102850
 30
0.0
 10
54.737085
 20
52.501220
 30
0.0
 10
54.658065
 20
52.299650
 30
0.0
 10
54.406808
 20
52.182790
 30
0.0
 10
54.160170
 20
52.262290
 30
0.0
 10
54.160192
 20
52.262440
 30
0.0
  0
LWPOLYLINE
  5
111
100
AcDbEntity
  8
Monete
 62
7
100
AcDbPolyline
 90
24
 70
1
 10
55.801777
 20
52.622940
 30
0.0
 10
55.702777
 20
52.982030
 30
0.0
 10
55.908164
 20
53.942520
 30
0.0
 10
56.407568
 20
55.569670
 30
0.0
 10
56.797629
 20
56.182810
 30
0.0
 10
57.160358
 20
56.116310
 30
0.0
 10
57.642909
 20
55.472510
 30
0.0
 10
58.458551
 20
54.087080
 30
0.0
 10
58.809258
 20
53.288600
 30
0.0
 10
58.656408
 20
53.031840
 30
0.0
 10
58.364634
 20
52.962140
 30
0.0
 10
58.209145
 20
53.113570
 30
0.0
 10
58.010155
 20
53.424090
 30
0.0
 10
57.670974
 20
53.846660
 30
0.0
 10
57.032978
 20
53.818060
 30
0.0
 10
56.814211
 20
53.780560
 30
0.0
 10
56.595436
 20
53.743060
 30
0.0
 10
56.541206
 20
53.501540
 30
0.0
 10
56.486986
 20
53.260010
 30
0.0
 10
56.383307
 20
52.877200
 30
0.0
 10
56.286297
 20
52.635190
 30
0.0
 10
56.066697
 20
52.499280
 30
0.0
 10
55.801758
 20
52.622740
 30
0.0
 10
55.801758
 20
52.622720
 30
0.0
  0
LWPOLYLINE
  5
112
100
AcDbEntity
  8
Monete
 62
7
100
AcDbPolyline
 90
14
 70
1
 10
57.217907
 20
54.547240
 30
0.0
 10
57.287507
 20
54.565240
 30
0.0
 10
57.357107
 20
54.583240
 30
0.0
 10
57.274427
 20
54.726040
 30
0.0
 10
57.191727
 20
54.868690
 30
0.0
 10
57.109027
 20
55.011350
 30
0.0
 10
57.026347
 20
55.154150
 30
0.0
 10
56.966047
 20
55.000850
 30
0.0
 10
56.905747
 20
54.847560
 30
0.0
 10
56.820467
 20
54.626390
 30
0.0
 10
56.784997
 20
54.525140
 30
0.0
 10
56.948841
 20
54.511640
 30
0.0
 10
57.218032
 20
54.547240
 30
0.0
 10
57.218032
 20
54.547260
 30
0.0
  0
LWPOLYLINE
  5
113
100
AcDbEntity
  8
Monete
 62
7
100
AcDbPolyline
 90
20
 70
1
 10
59.538993
 20
53.296800
 30
0.0
 10
59.385543
 20
53.618080
 30
0.0
 10
59.175746
 20
54.540970
 30
0.0
 10
58.907568
 20
56.060600
 30
0.0
 10
58.948668
 20
56.567730
 30
0.0
 10
59.450403
 20
56.766260
 30
0.0
 10
60.125524
 20
56.856660
 30
0.0
 10
61.057168
 20
56.583510
 30
0.0
 10
61.466024
 20
55.819120
 30
0.0
 10
61.415554
 20
55.240070
 30
0.0
 10
61.087773
 20
54.794210
 30
0.0
 10
60.724007
 20
54.533270
 30
0.0
 10
60.254508
 20
54.381180
 30
0.0
 10
60.010667
 20
54.291180
 30
0.0
 10
60.012867
 20
54.079840
 30
0.0
 10
60.101307
 20
53.495620
 30
0.0
 10
60.019797
 20
53.292370
 30
0.0
 10
59.789712
 20
53.191570
 30
0.0
 10
59.539038
 20
53.296870
 30
0.0
 10
59.538903
 20
53.296870
 30
0.0
  0
LWPOLYLINE
  5
114
100
AcDbEntity
  8
Monete
 62
7
100
AcDbPolyline
 90
14
 70
1
 10
60.274985
 20
55.102430
 30
0.0
 10
60.647022
 20
55.344280
 30
0.0
 10
60.768387
 20
55.674910
 30
0.0
 10
60.615462
 20
56.046940
 30
0.0
 10
60.095974
 20
56.134540
 30
0.0
 10
59.893422
 20
56.125540
 30
0.0
 10
59.690862
 20
56.116540
 30
0.0
 10
59.693862
 20
55.990530
 30
0.0
 10
59.696862
 20
55.864530
 30
0.0
 10
59.714642
 20
55.598670
 30
0.0
 10
59.749812
 20
55.313320
 30
0.0
 10
59.885787
 20
55.023030
 30
0.0
 10
60.275503
 20
55.102930
 30
0.0
 10
60.275518
 20
55.102930
 30
0.0
  0
LWPOLYLINE
  5
115
100
AcDbEntity
  8
Monete
 62
7
100
AcDbPolyline
 90
28
 70
1
 10
48.938332
 20
55.533180
 30
0.0
 10
48.804187
 20
55.699810
 30
0.0
 10
48.622439
 20
55.989890
 30
0.0
 10
48.047660
 20
56.881480
 30
0.0
 10
47.611671
 20
57.470310
 30
0.0
 10
47.482866
 20
57.377710
 30
0.0
 10
47.211359
 20
57.155260
 30
0.0
 10
46.911200
 20
56.932790
 30
0.0
 10
46.713486
 20
56.840290
 30
0.0
 10
46.346187
 20
57.058760
 30
0.0
 10
46.548358
 20
57.505230
 30
0.0
 10
47.729730
 20
58.391730
 30
0.0
 10
48.777907
 20
59.003990
 30
0.0
 10
49.066381
 20
58.943990
 30
0.0
 10
49.209511
 20
58.666600
 30
0.0
 10
49.157461
 20
58.485560
 30
0.0
 10
48.949614
 20
58.321560
 30
0.0
 10
48.751275
 20
58.209660
 30
0.0
 10
48.639405
 20
58.163060
 30
0.0
 10
48.548565
 20
58.120160
 30
0.0
 10
48.400785
 20
58.017410
 30
0.0
 10
48.306615
 20
57.944710
 30
0.0
 10
48.212445
 20
57.872110
 30
0.0
 10
48.361245
 20
57.666760
 30
0.0
 10
48.510044
 20
57.461390
 30
0.0
 10
49.184917
 20
56.412780
 30
0.0
 10
49.470743
 20
55.741530
 30
0.0
 10
49.281997
 20
55.485500
 30
0.0
  0
LWPOLYLINE
  5
116
100
AcDbEntity
  8
Monete
 62
7
100
AcDbPolyline
 90
24
 70
1
 10
50.364796
 20
56.197100
 30
0.0
 10
50.138386
 20
57.465810
 30
0.0
 10
50.116936
 20
59.164700
 30
0.0
 10
50.440936
 20
59.925390
 30
0.0
 10
51.674432
 20
59.057310
 30
0.0
 10
52.728611
 20
58.129390
 30
0.0
 10
53.062452
 20
57.731480
 30
0.0
 10
53.032602
 20
57.659180
 30
0.0
 10
52.960832
 20
57.547280
 30
0.0
 10
52.658725
 20
57.415880
 30
0.0
 10
52.222577
 20
57.653930
 30
0.0
 10
52.080152
 20
57.774530
 30
0.0
 10
51.937727
 20
57.895140
 30
0.0
 10
51.662079
 20
57.765530
 30
0.0
 10
51.386424
 20
57.635930
 30
0.0
 10
51.110775
 20
57.506330
 30
0.0
 10
50.835113
 20
57.376730
 30
0.0
 10
50.857313
 20
57.177060
 30
0.0
 10
50.879513
 20
56.977370
 30
0.0
 10
50.919193
 20
56.408880
 30
0.0
 10
50.842453
 20
56.178760
 30
0.0
 10
50.610628
 20
56.087960
 30
0.0
 10
50.364957
 20
56.196710
 30
0.0
 10
50.364935
 20
56.196720
 30
0.0
  0
LWPOLYLINE
  5
117
100
AcDbEntity
  8
Monete
 62
7
100
AcDbPolyline
 90
8
 70
1
 10
51.154194
 20
58.278710
 30
0.0
 10
51.261249
 20
58.333810
 30
0.0
 10
51.368318
 20
58.388810
 30
0.0
 10
51.249879
 20
58.489910
 30
0.0
 10
51.131439
 20
58.591010
 30
0.0
 10
50.821982
 20
58.806840
 30
0.0
 10
50.776762
 20
58.513310
 30
0.0
 10
50.837062
 20
58.183970
 30
0.0
  0
LWPOLYLINE
  5
118
100
AcDbEntity
  8
Monete
 62
7
100
AcDbPolyline
 90
24
 70
1
 10
53.627000
 20
57.942690
 30
0.0
 10
53.523650
 20
58.088040
 30
0.0
 10
53.412621
 20
58.304910
 30
0.0
 10
53.171316
 20
58.799170
 30
0.0
 10
52.754803
 20
59.611390
 30
0.0
 10
52.372512
 20
60.387040
 30
0.0
 10
52.213504
 20
60.793350
 30
0.0
 10
52.574908
 20
61.160020
 30
0.0
 10
53.339451
 20
61.480770
 30
0.0
 10
53.721007
 20
61.548270
 30
0.0
 10
54.018524
 20
61.510170
 30
0.0
 10
54.661882
 20
61.046440
 30
0.0
 10
54.954863
 20
60.318940
 30
0.0
 10
54.705922
 20
59.647170
 30
0.0
 10
54.107331
 20
59.174370
 30
0.0
 10
53.941146
 20
59.109370
 30
0.0
 10
53.862546
 20
59.076570
 30
0.0
 10
53.899066
 20
58.955820
 30
0.0
 10
54.009526
 20
58.679220
 30
0.0
 10
54.163516
 20
58.181250
 30
0.0
 10
54.027496
 20
57.946470
 30
0.0
 10
53.805737
 20
57.853570
 30
0.0
 10
53.626989
 20
57.942670
 30
0.0
 10
53.627012
 20
57.942710
 30
0.0
  0
LWPOLYLINE
  5
119
100
AcDbEntity
  8
Monete
 62
7
100
AcDbPolyline
 90
11
 70
1
 10
54.107735
 20
60.036460
 30
0.0
 10
54.232145
 20
60.323290
 30
0.0
 10
54.133415
 20
60.610100
 30
0.0
 10
53.826740
 20
60.824500
 30
0.0
 10
53.377954
 20
60.767600
 30
0.0
 10
53.155152
 20
60.674900
 30
0.0
 10
53.062482
 20
60.605500
 30
0.0
 10
53.233774
 20
60.229400
 30
0.0
 10
53.485339
 20
59.843140
 30
0.0
 10
53.777083
 20
59.807240
 30
0.0
 10
54.107742
 20
60.036420
 30
0.0
  0
LWPOLYLINE
  5
11a
100
AcDbEntity
  8
Letras
 62
7
100
AcDbPolyline
 90
88
 70
1
 10
27.918921
 20
18.798033
 30
0.0
 10
27.918921
 20
19.699136
 30
0.0
 10
27.918921
 20
20.600245
 30
0.0
 10
27.918921
 20
21.501348
 30
0.0
 10
27.918921
 20
22.402456
 30
0.0
 10
27.945339
 20
22.722285
 30
0.0
 10
28.024597
 20
23.011439
 30
0.0
 10
28.156692
 20
23.269913
 30
0.0
 10
28.341626
 20
23.497706
 30
0.0
 10
28.568688
 20
23.683606
 30
0.0
 10
28.827167
 20
23.816386
 30
0.0
 10
29.117064
 20
23.896062
 30
0.0
 10
29.438378
 20
23.922590
 30
0.0
 10
29.815148
 20
23.878412
 30
0.0
 10
30.145745
 20
23.745855
 30
0.0
 10
30.430167
 20
23.524931
 30
0.0
 10
30.668415
 20
23.215633
 30
0.0
 10
30.802177
 20
23.392374
 30
0.0
 10
30.940699
 20
23.541640
 30
0.0
 10
31.083981
 20
23.663436
 30
0.0
 10
31.232024
 20
23.757758
 30
0.0
 10
31.391252
 20
23.829874
 30
0.0
 10
31.568094
 20
23.881389
 30
0.0
 10
31.762549
 20
23.912277
 30
0.0
 10
31.974616
 20
23.922590
 30
0.0
 10
32.304499
 20
23.896062
 30
0.0
 10
32.593443
 20
23.816386
 30
0.0
 10
32.841450
 20
23.683606
 30
0.0
 10
33.048518
 20
23.497706
 30
0.0
 10
33.211794
 20
23.261896
 30
0.0
 10
33.328419
 20
22.979387
 30
0.0
 10
33.398394
 20
22.650170
 30
0.0
 10
33.421718
 20
22.274254
 30
0.0
 10
33.421718
 20
21.405197
 30
0.0
 10
33.421718
 20
20.536141
 30
0.0
 10
33.421718
 20
19.667089
 30
0.0
 10
33.421718
 20
18.798033
 30
0.0
 10
33.035189
 20
18.798033
 30
0.0
 10
32.648660
 20
18.798033
 30
0.0
 10
32.262131
 20
18.798033
 30
0.0
 10
31.875603
 20
18.798033
 30
0.0
 10
31.875603
 20
19.611226
 30
0.0
 10
31.875603
 20
20.424418
 30
0.0
 10
31.875603
 20
21.237611
 30
0.0
 10
31.875603
 20
22.050804
 30
0.0
 10
31.873005
 20
22.161383
 30
0.0
 10
31.865151
 20
22.251356
 30
0.0
 10
31.852064
 20
22.320729
 30
0.0
 10
31.833736
 20
22.369479
 30
0.0
 10
31.809462
 20
22.404726
 30
0.0
 10
31.774714
 20
22.429926
 30
0.0
 10
31.729493
 20
22.445024
 30
0.0
 10
31.673798
 20
22.449809
 30
0.0
 10
31.573833
 20
22.426470
 30
0.0
 10
31.502430
 20
22.356417
 30
0.0
 10
31.459591
 20
22.239655
 30
0.0
 10
31.445309
 20
22.076195
 30
0.0
 10
31.445309
 20
21.256590
 30
0.0
 10
31.445309
 20
20.436986
 30
0.0
 10
31.445309
 20
19.617382
 30
0.0
 10
31.445309
 20
18.797778
 30
0.0
 10
31.058754
 20
18.797778
 30
0.0
 10
30.672225
 20
18.797778
 30
0.0
 10
30.285696
 20
18.797778
 30
0.0
 10
29.899168
 20
18.797778
 30
0.0
 10
29.899168
 20
19.610970
 30
0.0
 10
29.899168
 20
20.424163
 30
0.0
 10
29.899168
 20
21.237356
 30
0.0
 10
29.899168
 20
22.050549
 30
0.0
 10
29.896570
 20
22.159756
 30
0.0
 10
29.888716
 20
22.249272
 30
0.0
 10
29.875628
 20
22.319097
 30
0.0
 10
29.857301
 20
22.369229
 30
0.0
 10
29.831358
 20
22.404477
 30
0.0
 10
29.795416
 20
22.429676
 30
0.0
 10
29.749482
 20
22.444774
 30
0.0
 10
29.693548
 20
22.449559
 30
0.0
 10
29.593584
 20
22.424625
 30
0.0
 10
29.522181
 20
22.349761
 30
0.0
 10
29.479337
 20
22.224987
 30
0.0
 10
29.465055
 20
22.050304
 30
0.0
 10
29.465055
 20
21.237111
 30
0.0
 10
29.465055
 20
20.423919
 30
0.0
 10
29.465055
 20
19.610726
 30
0.0
 10
29.465055
 20
18.797533
 30
0.0
 10
29.078526
 20
18.797533
 30
0.0
 10
28.691996
 20
18.797533
 30
0.0
 10
28.305467
 20
18.797533
 30
0.0
  0
LWPOLYLINE
  5
11b
100
AcDbEntity
  8
Letras
 62
7
100
AcDbPolyline
 90
32
 70
1
 10
36.056969
 20
22.527002
 30
0.0
 10
36.446117
 20
22.491967
 30
0.0
 10
36.806226
 20
22.386885
 30
0.0
 10
37.137299
 20
22.211745
 30
0.0
 10
37.439334
 20
21.966551
 30
0.0
 10
37.692577
 20
21.674197
 30
0.0
 10
37.873465
 20
21.353905
 30
0.0
 10
37.981997
 20
21.005693
 30
0.0
 10
38.018177
 20
20.629543
 30
0.0
 10
37.981522
 20
20.248587
 30
0.0
 10
37.871561
 20
19.896934
 30
0.0
 10
37.688293
 20
19.574591
 30
0.0
 10
37.431718
 20
19.281545
 30
0.0
 10
37.125161
 20
19.037952
 30
0.0
 10
36.788138
 20
18.863960
 30
0.0
 10
36.420650
 20
18.759564
 30
0.0
 10
36.022697
 20
18.724742
 30
0.0
 10
35.624505
 20
18.759564
 30
0.0
 10
35.256303
 20
18.863960
 30
0.0
 10
34.918091
 20
19.037952
 30
0.0
 10
34.609867
 20
19.281545
 30
0.0
 10
34.353292
 20
19.575963
 30
0.0
 10
34.170024
 20
19.898769
 30
0.0
 10
34.060064
 20
20.249958
 30
0.0
 10
34.023409
 20
20.629543
 30
0.0
 10
34.060064
 20
21.014619
 30
0.0
 10
34.170024
 20
21.367643
 30
0.0
 10
34.353292
 20
21.688620
 30
0.0
 10
34.609867
 20
21.977540
 30
0.0
 10
34.920232
 20
22.217927
 30
0.0
 10
35.264871
 20
22.389633
 30
0.0
 10
35.643784
 20
22.492653
 30
0.0
  0
LWPOLYLINE
  5
11c
100
AcDbEntity
  8
Letras
 62
7
100
AcDbPolyline
 90
32
 70
1
 10
36.018889
 20
21.175341
 30
0.0
 10
35.908928
 20
21.165240
 30
0.0
 10
35.807535
 20
21.135044
 30
0.0
 10
35.714711
 20
21.084698
 30
0.0
 10
35.630456
 20
21.014183
 30
0.0
 10
35.560481
 20
20.930850
 30
0.0
 10
35.510501
 20
20.838357
 30
0.0
 10
35.480511
 20
20.736709
 30
0.0
 10
35.470513
 20
20.625901
 30
0.0
 10
35.480511
 20
20.516470
 30
0.0
 10
35.510501
 20
20.415274
 30
0.0
 10
35.560481
 20
20.322329
 30
0.0
 10
35.630456
 20
20.237619
 30
0.0
 10
35.716139
 20
20.167104
 30
0.0
 10
35.809439
 20
20.116758
 30
0.0
 10
35.910356
 20
20.086562
 30
0.0
 10
36.018889
 20
20.076461
 30
0.0
 10
36.128849
 20
20.086562
 30
0.0
 10
36.230242
 20
20.116758
 30
0.0
 10
36.323066
 20
20.167104
 30
0.0
 10
36.407321
 20
20.237619
 30
0.0
 10
36.478963
 20
20.322329
 30
0.0
 10
36.530137
 20
20.415274
 30
0.0
 10
36.560839
 20
20.516470
 30
0.0
 10
36.571075
 20
20.625901
 30
0.0
 10
36.561076
 20
20.736709
 30
0.0
 10
36.531087
 20
20.838357
 30
0.0
 10
36.481107
 20
20.930850
 30
0.0
 10
36.411132
 20
21.014183
 30
0.0
 10
36.326639
 20
21.084698
 30
0.0
 10
36.233101
 20
21.135044
 30
0.0
 10
36.130518
 20
21.165240
 30
0.0
  0
LWPOLYLINE
  5
11d
100
AcDbEntity
  8
Letras
 62
7
100
AcDbPolyline
 90
48
 70
1
 10
41.997708
 20
18.798033
 30
0.0
 10
41.641645
 20
18.798033
 30
0.0
 10
41.285581
 20
18.798033
 30
0.0
 10
40.929518
 20
18.798033
 30
0.0
 10
40.573455
 20
18.798033
 30
0.0
 10
40.573455
 20
19.313603
 30
0.0
 10
40.573455
 20
19.829173
 30
0.0
 10
40.573455
 20
20.344748
 30
0.0
 10
40.573455
 20
20.860318
 30
0.0
 10
40.556559
 20
20.998138
 30
0.0
 10
40.505860
 20
21.096586
 30
0.0
 10
40.421367
 20
21.155650
 30
0.0
 10
40.303075
 20
21.175320
 30
0.0
 10
40.186450
 20
21.155650
 30
0.0
 10
40.103147
 20
21.096586
 30
0.0
 10
40.053166
 20
20.998138
 30
0.0
 10
40.036508
 20
20.860318
 30
0.0
 10
40.036508
 20
20.344748
 30
0.0
 10
40.036508
 20
19.829173
 30
0.0
 10
40.036508
 20
19.313603
 30
0.0
 10
40.036508
 20
18.798033
 30
0.0
 10
39.680440
 20
18.798033
 30
0.0
 10
39.324376
 20
18.798033
 30
0.0
 10
38.968313
 20
18.798033
 30
0.0
 10
38.612250
 20
18.798033
 30
0.0
 10
38.612250
 20
19.307191
 30
0.0
 10
38.612250
 20
19.816355
 30
0.0
 10
38.612250
 20
20.325514
 30
0.0
 10
38.612250
 20
20.834678
 30
0.0
 10
38.642952
 20
21.177627
 30
0.0
 10
38.735061
 20
21.492193
 30
0.0
 10
38.888578
 20
21.778365
 30
0.0
 10
39.103501
 20
22.036152
 30
0.0
 10
39.362933
 20
22.250899
 30
0.0
 10
39.649974
 20
22.404291
 30
0.0
 10
39.964623
 20
22.496321
 30
0.0
 10
40.306882
 20
22.526996
 30
0.0
 10
40.694125
 20
22.491483
 30
0.0
 10
41.040906
 20
22.385024
 30
0.0
 10
41.347225
 20
22.207598
 30
0.0
 10
41.613083
 20
21.959199
 30
0.0
 10
41.781356
 20
21.715834
 30
0.0
 10
41.901551
 20
21.428977
 30
0.0
 10
41.973668
 20
21.098616
 30
0.0
 10
41.997705
 20
20.724758
 30
0.0
 10
41.997705
 20
20.243069
 30
0.0
 10
41.997705
 20
19.761379
 30
0.0
 10
41.997705
 20
19.279690
 30
0.0
  0
LWPOLYLINE
  5
11e
100
AcDbEntity
  8
Letras
 62
7
100
AcDbPolyline
 90
96
 70
1
 10
44.857642
 20
20.303536
 30
0.0
 10
44.857642
 20
19.989433
 30
0.0
 10
44.857642
 20
19.675324
 30
0.0
 10
44.857642
 20
19.361221
 30
0.0
 10
44.857642
 20
19.047118
 30
0.0
 10
44.705077
 20
18.999058
 30
0.0
 10
44.555844
 20
18.964715
 30
0.0
 10
44.409944
 20
18.944088
 30
0.0
 10
44.267376
 20
18.937230
 30
0.0
 10
43.935827
 20
18.968596
 30
0.0
 10
43.630460
 20
19.062689
 30
0.0
 10
43.351274
 20
19.219515
 30
0.0
 10
43.098269
 20
19.439068
 30
0.0
 10
42.890010
 20
19.703947
 30
0.0
 10
42.741254
 20
19.996764
 30
0.0
 10
42.652000
 20
20.317507
 30
0.0
 10
42.622248
 20
20.666183
 30
0.0
 10
42.658190
 20
21.042790
 30
0.0
 10
42.766009
 20
21.388717
 30
0.0
 10
42.945707
 20
21.703968
 30
0.0
 10
43.197284
 20
21.988539
 30
0.0
 10
43.501223
 20
22.224121
 30
0.0
 10
43.838008
 20
22.392387
 30
0.0
 10
44.207638
 20
22.493355
 30
0.0
 10
44.610113
 20
22.527007
 30
0.0
 10
44.830511
 20
22.516268
 30
0.0
 10
45.046148
 20
22.483998
 30
0.0
 10
45.257025
 20
22.430197
 30
0.0
 10
45.463142
 20
22.354875
 30
0.0
 10
45.655930
 20
22.261468
 30
0.0
 10
45.826822
 20
22.153409
 30
0.0
 10
45.975816
 20
22.030698
 30
0.0
 10
46.102914
 20
21.893335
 30
0.0
 10
46.272853
 20
21.626387
 30
0.0
 10
46.394239
 20
21.305415
 30
0.0
 10
46.467070
 20
20.930408
 30
0.0
 10
46.491350
 20
20.501377
 30
0.0
 10
46.491350
 20
20.201006
 30
0.0
 10
46.491350
 20
19.900640
 30
0.0
 10
46.491350
 20
19.600269
 30
0.0
 10
46.491350
 20
19.299903
 30
0.0
 10
46.455170
 20
18.834008
 30
0.0
 10
46.346638
 20
18.414366
 30
0.0
 10
46.165750
 20
18.040964
 30
0.0
 10
45.912507
 20
17.713809
 30
0.0
 10
45.603093
 20
17.446181
 30
0.0
 10
45.249886
 20
17.255012
 30
0.0
 10
44.852885
 20
17.140318
 30
0.0
 10
44.412090
 20
17.102094
 30
0.0
 10
44.261905
 20
17.110547
 30
0.0
 10
44.093156
 20
17.135959
 30
0.0
 10
43.905842
 20
17.178330
 30
0.0
 10
43.699963
 20
17.237622
 30
0.0
 10
43.699963
 20
17.548983
 30
0.0
 10
43.699963
 20
17.860337
 30
0.0
 10
43.699963
 20
18.171697
 30
0.0
 10
43.699963
 20
18.483058
 30
0.0
 10
43.839437
 20
18.418954
 30
0.0
 10
43.979863
 20
18.373180
 30
0.0
 10
44.121241
 20
18.345695
 30
0.0
 10
44.263571
 20
18.336551
 30
0.0
 10
44.444935
 20
18.351862
 30
0.0
 10
44.604402
 20
18.397901
 30
0.0
 10
44.741972
 20
18.474594
 30
0.0
 10
44.857645
 20
18.581967
 30
0.0
 10
44.949279
 20
18.716130
 30
0.0
 10
45.014732
 20
18.876842
 30
0.0
 10
45.054006
 20
19.064119
 30
0.0
 10
45.067099
 20
19.277946
 30
0.0
 10
45.067099
 20
19.621353
 30
0.0
 10
45.067099
 20
19.964765
 30
0.0
 10
45.067099
 20
20.308172
 30
0.0
 10
45.067099
 20
20.651584
 30
0.0
 10
45.036872
 20
20.903189
 30
0.0
 10
44.946191
 20
21.082907
 30
0.0
 10
44.795054
 20
21.190737
 30
0.0
 10
44.583463
 20
21.226676
 30
0.0
 10
44.483737
 20
21.217053
 30
0.0
 10
44.390199
 20
21.188186
 30
0.0
 10
44.302849
 20
21.140126
 30
0.0
 10
44.221687
 20
21.072816
 30
0.0
 10
44.155045
 20
20.994752
 30
0.0
 10
44.107441
 20
20.910727
 30
0.0
 10
44.078878
 20
20.820760
 30
0.0
 10
44.069360
 20
20.724832
 30
0.0
 10
44.078403
 20
20.624785
 30
0.0
 10
44.105534
 20
20.533435
 30
0.0
 10
44.150756
 20
20.450787
 30
0.0
 10
44.214067
 20
20.376843
 30
0.0
 10
44.292610
 20
20.315944
 30
0.0
 10
44.379722
 20
20.272457
 30
0.0
 10
44.475402
 20
20.246354
 30
0.0
 10
44.579650
 20
20.237635
 30
0.0
 10
44.651292
 20
20.241888
 30
0.0
 10
44.721505
 20
20.254222
 30
0.0
 10
44.790290
 20
20.274849
 30
0.0
  0
LWPOLYLINE
  5
11f
100
AcDbEntity
  8
Letras
 62
7
100
AcDbPolyline
 90
48
 70
1
 10
47.325333
 20
22.398793
 30
0.0
 10
47.681396
 20
22.398793
 30
0.0
 10
48.037459
 20
22.398793
 30
0.0
 10
48.393523
 20
22.398793
 30
0.0
 10
48.749586
 20
22.398793
 30
0.0
 10
48.749586
 20
21.883223
 30
0.0
 10
48.749586
 20
21.367648
 30
0.0
 10
48.749586
 20
20.852078
 30
0.0
 10
48.749586
 20
20.336508
 30
0.0
 10
48.766482
 20
20.200288
 30
0.0
 10
48.817181
 20
20.102989
 30
0.0
 10
48.901674
 20
20.044606
 30
0.0
 10
49.019966
 20
20.025148
 30
0.0
 10
49.136591
 20
20.044606
 30
0.0
 10
49.219894
 20
20.102989
 30
0.0
 10
49.269874
 20
20.200288
 30
0.0
 10
49.286538
 20
20.336508
 30
0.0
 10
49.286538
 20
20.852078
 30
0.0
 10
49.286538
 20
21.367648
 30
0.0
 10
49.286538
 20
21.883223
 30
0.0
 10
49.286538
 20
22.398793
 30
0.0
 10
49.642602
 20
22.398793
 30
0.0
 10
49.998665
 20
22.398793
 30
0.0
 10
50.354729
 20
22.398793
 30
0.0
 10
50.710792
 20
22.398793
 30
0.0
 10
50.710792
 20
21.889635
 30
0.0
 10
50.710792
 20
21.380471
 30
0.0
 10
50.710792
 20
20.871307
 30
0.0
 10
50.710792
 20
20.362148
 30
0.0
 10
50.680090
 20
20.020571
 30
0.0
 10
50.587980
 20
19.706462
 30
0.0
 10
50.434463
 20
19.419828
 30
0.0
 10
50.219540
 20
19.160669
 30
0.0
 10
49.960109
 20
18.947527
 30
0.0
 10
49.673068
 20
18.795284
 30
0.0
 10
49.358419
 20
18.703934
 30
0.0
 10
49.016160
 20
18.673472
 30
0.0
 10
48.630345
 20
18.708985
 30
0.0
 10
48.284040
 20
18.815438
 30
0.0
 10
47.977244
 20
18.992870
 30
0.0
 10
47.709959
 20
19.241269
 30
0.0
 10
47.541686
 20
19.484405
 30
0.0
 10
47.421490
 20
19.770577
 30
0.0
 10
47.349373
 20
20.099789
 30
0.0
 10
47.325336
 20
20.472047
 30
0.0
 10
47.325336
 20
20.953736
 30
0.0
 10
47.325336
 20
21.435426
 30
0.0
 10
47.325336
 20
21.917115
 30
0.0
  0
LWPOLYLINE
  5
120
100
AcDbEntity
  8
Letras
 62
7
100
AcDbPolyline
 90
80
 70
1
 10
55.276782
 20
20.402441
 30
0.0
 10
54.736974
 20
20.402441
 30
0.0
 10
54.197167
 20
20.402441
 30
0.0
 10
53.657359
 20
20.402441
 30
0.0
 10
53.117552
 20
20.402441
 30
0.0
 10
53.095892
 20
20.479596
 30
0.0
 10
53.080422
 20
20.553541
 30
0.0
 10
53.071142
 20
20.624280
 30
0.0
 10
53.068047
 20
20.691818
 30
0.0
 10
53.072358
 20
20.782934
 30
0.0
 10
53.085214
 20
20.873141
 30
0.0
 10
53.106636
 20
20.962423
 30
0.0
 10
53.136625
 20
21.050796
 30
0.0
 10
53.317513
 20
21.050796
 30
0.0
 10
53.498401
 20
21.050796
 30
0.0
 10
53.679289
 20
21.050796
 30
0.0
 10
53.860177
 20
21.050796
 30
0.0
 10
53.801864
 20
21.228680
 30
0.0
 10
53.703090
 20
21.355745
 30
0.0
 10
53.563854
 20
21.431981
 30
0.0
 10
53.384156
 20
21.457393
 30
0.0
 10
53.257059
 20
21.443677
 30
0.0
 10
53.142338
 20
21.402475
 30
0.0
 10
53.039993
 20
21.333794
 30
0.0
 10
52.950025
 20
21.237638
 30
0.0
 10
52.876718
 20
21.121795
 30
0.0
 10
52.824356
 20
20.990382
 30
0.0
 10
52.792941
 20
20.843402
 30
0.0
 10
52.782467
 20
20.680856
 30
0.0
 10
52.792465
 20
20.511670
 30
0.0
 10
52.822455
 20
20.359427
 30
0.0
 10
52.872435
 20
20.224121
 30
0.0
 10
52.942410
 20
20.105759
 30
0.0
 10
53.030474
 20
20.009603
 30
0.0
 10
53.130914
 20
19.940922
 30
0.0
 10
53.243731
 20
19.899720
 30
0.0
 10
53.368924
 20
19.886004
 30
0.0
 10
53.474601
 20
19.898816
 30
0.0
 10
53.578373
 20
19.937253
 30
0.0
 10
53.680241
 20
20.001357
 30
0.0
 10
53.780206
 20
20.091102
 30
0.0
 10
53.982990
 20
19.856669
 30
0.0
 10
54.185775
 20
19.622236
 30
0.0
 10
54.388560
 20
19.387797
 30
0.0
 10
54.591345
 20
19.153364
 30
0.0
 10
54.299782
 20
18.965863
 30
0.0
 10
53.992511
 20
18.831935
 30
0.0
 10
53.669531
 20
18.751574
 30
0.0
 10
53.330842
 20
18.724779
 30
0.0
 10
52.925035
 20
18.758910
 30
0.0
 10
52.553025
 20
18.861244
 30
0.0
 10
52.214812
 20
19.031807
 30
0.0
 10
51.910397
 20
19.270589
 30
0.0
 10
51.658820
 20
19.559742
 30
0.0
 10
51.479122
 20
19.881400
 30
0.0
 10
51.371303
 20
20.235567
 30
0.0
 10
51.335361
 20
20.622249
 30
0.0
 10
51.371541
 20
21.007782
 30
0.0
 10
51.480073
 20
21.362183
 30
0.0
 10
51.660961
 20
21.685446
 30
0.0
 10
51.914204
 20
21.977572
 30
0.0
 10
52.221951
 20
22.219560
 30
0.0
 10
52.562544
 20
22.392414
 30
0.0
 10
52.935982
 20
22.496119
 30
0.0
 10
53.342266
 20
22.530675
 30
0.0
 10
53.738792
 20
22.496810
 30
0.0
 10
54.101995
 20
22.395157
 30
0.0
 10
54.431877
 20
22.225742
 30
0.0
 10
54.728438
 20
21.988561
 30
0.0
 10
54.975017
 20
21.703532
 30
0.0
 10
55.151145
 20
21.386909
 30
0.0
 10
55.256821
 20
21.038691
 30
0.0
 10
55.292045
 20
20.658878
 30
0.0
 10
55.291105
 20
20.612626
 30
0.0
 10
55.288231
 20
20.554477
 30
0.0
 10
55.283478
 20
20.484424
 30
0.0
 10
55.276812
 20
20.402462
 30
0.0
 10
55.276812
 20
20.402462
 30
0.0
 10
55.276812
 20
20.402462
 30
0.0
 10
55.276811
 20
20.402462
 30
0.0
  0
LWPOLYLINE
  5
121
100
AcDbEntity
  8
Letras
 62
7
100
AcDbPolyline
 90
40
 70
1
 10
57.953921
 20
22.486709
 30
0.0
 10
57.953921
 20
22.120405
 30
0.0
 10
57.953921
 20
21.754101
 30
0.0
 10
57.953921
 20
21.387797
 30
0.0
 10
57.953921
 20
21.021493
 30
0.0
 10
57.881328
 20
21.056740
 30
0.0
 10
57.812067
 20
21.081939
 30
0.0
 10
57.746138
 20
21.097037
 30
0.0
 10
57.683542
 20
21.101822
 30
0.0
 10
57.513602
 20
21.066097
 30
0.0
 10
57.392217
 20
20.958952
 30
0.0
 10
57.319386
 20
20.780382
 30
0.0
 10
57.295111
 20
20.530378
 30
0.0
 10
57.295111
 20
20.097226
 30
0.0
 10
57.295111
 20
19.664070
 30
0.0
 10
57.295111
 20
19.230918
 30
0.0
 10
57.295111
 20
18.797762
 30
0.0
 10
56.939048
 20
18.797762
 30
0.0
 10
56.582985
 20
18.797762
 30
0.0
 10
56.226921
 20
18.797762
 30
0.0
 10
55.870858
 20
18.797762
 30
0.0
 10
55.870858
 20
19.296851
 30
0.0
 10
55.870858
 20
19.795941
 30
0.0
 10
55.870858
 20
20.295025
 30
0.0
 10
55.870858
 20
20.794114
 30
0.0
 10
55.898945
 20
21.169573
 30
0.0
 10
55.983201
 20
21.504740
 30
0.0
 10
56.123627
 20
21.799614
 30
0.0
 10
56.320224
 20
22.054196
 30
0.0
 10
56.563708
 20
22.260931
 30
0.0
 10
56.844798
 20
22.408597
 30
0.0
 10
57.163494
 20
22.497198
 30
0.0
 10
57.519796
 20
22.526757
 30
0.0
 10
57.609764
 20
22.524099
 30
0.0
 10
57.712108
 20
22.516550
 30
0.0
 10
57.826829
 20
22.503950
 30
0.0
 10
57.953927
 20
22.486300
 30
0.0
 10
57.953927
 20
22.486300
 30
0.0
 10
57.953927
 20
22.486305
 30
0.0
 10
57.953927
 20
22.486305
 30
0.0
  0
LWPOLYLINE
  5
122
100
AcDbEntity
  8
Letras
 62
7
100
AcDbPolyline
 90
32
 70
1
 10
25.820621
 20
13.149628
 30
0.0
 10
26.209768
 20
13.114593
 30
0.0
 10
26.569878
 20
13.009511
 30
0.0
 10
26.900950
 20
12.834371
 30
0.0
 10
27.202985
 20
12.589177
 30
0.0
 10
27.456229
 20
12.296823
 30
0.0
 10
27.637116
 20
11.976537
 30
0.0
 10
27.745649
 20
11.628319
 30
0.0
 10
27.781828
 20
11.252169
 30
0.0
 10
27.745174
 20
10.871213
 30
0.0
 10
27.635212
 20
10.519561
 30
0.0
 10
27.451945
 20
10.197217
 30
0.0
 10
27.195369
 20
9.904172
 30
0.0
 10
26.888812
 20
9.660578
 30
0.0
 10
26.551789
 20
9.486586
 30
0.0
 10
26.184302
 20
9.382190
 30
0.0
 10
25.786348
 20
9.347368
 30
0.0
 10
25.388157
 20
9.382190
 30
0.0
 10
25.019955
 20
9.486586
 30
0.0
 10
24.681742
 20
9.660578
 30
0.0
 10
24.373519
 20
9.904172
 30
0.0
 10
24.116944
 20
10.198589
 30
0.0
 10
23.933676
 20
10.521395
 30
0.0
 10
23.823715
 20
10.872585
 30
0.0
 10
23.787060
 20
11.252169
 30
0.0
 10
23.823715
 20
11.637245
 30
0.0
 10
23.933676
 20
11.990269
 30
0.0
 10
24.116944
 20
12.311246
 30
0.0
 10
24.373519
 20
12.600166
 30
0.0
 10
24.683884
 20
12.840554
 30
0.0
 10
25.028523
 20
13.012260
 30
0.0
 10
25.407435
 20
13.115279
 30
0.0
  0
LWPOLYLINE
  5
123
100
AcDbEntity
  8
Letras
 62
7
100
AcDbPolyline
 90
32
 70
1
 10
25.782540
 20
11.797967
 30
0.0
 10
25.672580
 20
11.787866
 30
0.0
 10
25.571187
 20
11.757670
 30
0.0
 10
25.478363
 20
11.707324
 30
0.0
 10
25.394108
 20
11.636809
 30
0.0
 10
25.324133
 20
11.553476
 30
0.0
 10
25.274153
 20
11.460983
 30
0.0
 10
25.244164
 20
11.359335
 30
0.0
 10
25.234165
 20
11.248527
 30
0.0
 10
25.244164
 20
11.139096
 30
0.0
 10
25.274153
 20
11.037900
 30
0.0
 10
25.324133
 20
10.944956
 30
0.0
 10
25.394108
 20
10.860245
 30
0.0
 10
25.479791
 20
10.789730
 30
0.0
 10
25.573091
 20
10.739385
 30
0.0
 10
25.674008
 20
10.709188
 30
0.0
 10
25.782540
 20
10.699087
 30
0.0
 10
25.892501
 20
10.709188
 30
0.0
 10
25.993894
 20
10.739385
 30
0.0
 10
26.086718
 20
10.789730
 30
0.0
 10
26.170973
 20
10.860245
 30
0.0
 10
26.242615
 20
10.944956
 30
0.0
 10
26.293789
 20
11.037900
 30
0.0
 10
26.324491
 20
11.139096
 30
0.0
 10
26.334727
 20
11.248527
 30
0.0
 10
26.324728
 20
11.359335
 30
0.0
 10
26.294739
 20
11.460983
 30
0.0
 10
26.244759
 20
11.553476
 30
0.0
 10
26.174784
 20
11.636809
 30
0.0
 10
26.090291
 20
11.707324
 30
0.0
 10
25.996753
 20
11.757670
 30
0.0
 10
25.894170
 20
11.787866
 30
0.0
  0
LWPOLYLINE
  5
124
100
AcDbEntity
  8
Letras
 62
7
100
AcDbPolyline
 90
60
 70
1
 10
30.436117
 20
12.263171
 30
0.0
 10
30.436117
 20
11.904193
 30
0.0
 10
30.436117
 20
11.545220
 30
0.0
 10
30.436117
 20
11.186241
 30
0.0
 10
30.436117
 20
10.827263
 30
0.0
 10
30.277127
 20
10.827263
 30
0.0
 10
30.118136
 20
10.827263
 30
0.0
 10
29.959145
 20
10.827263
 30
0.0
 10
29.800154
 20
10.827263
 30
0.0
 10
29.800154
 20
10.475611
 30
0.0
 10
29.800154
 20
10.123964
 30
0.0
 10
29.800154
 20
9.772311
 30
0.0
 10
29.800154
 20
9.420659
 30
0.0
 10
29.444091
 20
9.420659
 30
0.0
 10
29.088027
 20
9.420659
 30
0.0
 10
28.731964
 20
9.420659
 30
0.0
 10
28.375900
 20
9.420659
 30
0.0
 10
28.375900
 20
10.196308
 30
0.0
 10
28.375900
 20
10.971957
 30
0.0
 10
28.375900
 20
11.747601
 30
0.0
 10
28.375900
 20
12.523250
 30
0.0
 10
28.387562
 20
12.775540
 30
0.0
 10
28.422547
 20
13.008602
 30
0.0
 10
28.480860
 20
13.222429
 30
0.0
 10
28.562498
 20
13.417027
 30
0.0
 10
28.695783
 20
13.642306
 30
0.0
 10
28.859534
 20
13.845601
 30
0.0
 10
29.053751
 20
14.026924
 30
0.0
 10
29.278432
 20
14.186265
 30
0.0
 10
29.522631
 20
14.317679
 30
0.0
 10
29.771590
 20
14.411543
 30
0.0
 10
30.025309
 20
14.467864
 30
0.0
 10
30.283788
 20
14.486631
 30
0.0
 10
30.321869
 20
14.485568
 30
0.0
 10
30.359950
 20
14.484504
 30
0.0
 10
30.398030
 20
14.483441
 30
0.0
 10
30.436111
 20
14.482378
 30
0.0
 10
30.436111
 20
14.123399
 30
0.0
 10
30.436111
 20
13.764421
 30
0.0
 10
30.436111
 20
13.405448
 30
0.0
 10
30.436111
 20
13.046470
 30
0.0
 10
30.413025
 20
13.048065
 30
0.0
 10
30.393271
 20
13.049128
 30
0.0
 10
30.376851
 20
13.049660
 30
0.0
 10
30.363758
 20
13.049894
 30
0.0
 10
30.236184
 20
13.039155
 30
0.0
 10
30.123843
 20
13.006885
 30
0.0
 10
30.026735
 20
12.953084
 30
0.0
 10
29.944859
 20
12.877762
 30
0.0
 10
29.881549
 20
12.782521
 30
0.0
 10
29.836327
 20
12.668970
 30
0.0
 10
29.809196
 20
12.537099
 30
0.0
 10
29.800154
 20
12.386913
 30
0.0
 10
29.800154
 20
12.355760
 30
0.0
 10
29.800154
 20
12.324606
 30
0.0
 10
29.800154
 20
12.293453
 30
0.0
 10
29.800154
 20
12.262299
 30
0.0
 10
29.959144
 20
12.262299
 30
0.0
 10
30.118136
 20
12.262299
 30
0.0
 10
30.277126
 20
12.262299
 30
0.0
  0
LWPOLYLINE
  5
125
100
AcDbEntity
  8
Letras
 62
7
100
AcDbPolyline
 90
52
 70
1
 10
34.274748
 20
14.420703
 30
0.0
 10
34.274748
 20
14.070885
 30
0.0
 10
34.274748
 20
13.721061
 30
0.0
 10
34.274748
 20
13.371238
 30
0.0
 10
34.274748
 20
13.021420
 30
0.0
 10
34.434691
 20
13.021420
 30
0.0
 10
34.594634
 20
13.021420
 30
0.0
 10
34.754577
 20
13.021420
 30
0.0
 10
34.914520
 20
13.021420
 30
0.0
 10
34.914520
 20
12.659698
 30
0.0
 10
34.914520
 20
12.297971
 30
0.0
 10
34.914520
 20
11.936245
 30
0.0
 10
34.914520
 20
11.574523
 30
0.0
 10
34.754577
 20
11.574523
 30
0.0
 10
34.594634
 20
11.574523
 30
0.0
 10
34.434691
 20
11.574523
 30
0.0
 10
34.274748
 20
11.574523
 30
0.0
 10
34.283552
 20
11.373514
 30
0.0
 10
34.309971
 20
11.206390
 30
0.0
 10
34.354004
 20
11.073148
 30
0.0
 10
34.415649
 20
10.973786
 30
0.0
 10
34.502761
 20
10.901670
 30
0.0
 10
34.619386
 20
10.850155
 30
0.0
 10
34.765524
 20
10.819267
 30
0.0
 10
34.941176
 20
10.808954
 30
0.0
 10
34.941176
 20
10.449061
 30
0.0
 10
34.941176
 20
10.089163
 30
0.0
 10
34.941176
 20
9.729270
 30
0.0
 10
34.941176
 20
9.369378
 30
0.0
 10
34.889526
 20
9.367783
 30
0.0
 10
34.845018
 20
9.366720
 30
0.0
 10
34.807650
 20
9.366188
 30
0.0
 10
34.777424
 20
9.365954
 30
0.0
 10
34.538937
 20
9.379458
 30
0.0
 10
34.307115
 20
9.419968
 30
0.0
 10
34.081957
 20
9.487506
 30
0.0
 10
33.863464
 20
9.582062
 30
0.0
 10
33.660679
 20
9.699738
 30
0.0
 10
33.478839
 20
9.836644
 30
0.0
 10
33.317944
 20
9.992779
 30
0.0
 10
33.177994
 20
10.168147
 30
0.0
 10
33.034712
 20
10.423644
 30
0.0
 10
32.932367
 20
10.717598
 30
0.0
 10
32.870961
 20
11.050022
 30
0.0
 10
32.850489
 20
11.420903
 30
0.0
 10
32.850489
 20
12.170912
 30
0.0
 10
32.850489
 20
12.920915
 30
0.0
 10
32.850489
 20
13.670923
 30
0.0
 10
32.850489
 20
14.420932
 30
0.0
 10
33.206552
 20
14.420948
 30
0.0
 10
33.562616
 20
14.420964
 30
0.0
 10
33.918680
 20
14.420974
 30
0.0
  0
LWPOLYLINE
  5
126
100
AcDbEntity
  8
Letras
 62
7
100
AcDbPolyline
 90
56
 70
1
 10
37.035668
 20
14.420703
 30
0.0
 10
37.035668
 20
14.038833
 30
0.0
 10
37.035668
 20
13.656957
 30
0.0
 10
37.035668
 20
13.275087
 30
0.0
 10
37.035668
 20
12.893217
 30
0.0
 10
37.216556
 20
13.003796
 30
0.0
 10
37.397444
 20
13.082780
 30
0.0
 10
37.578331
 20
13.130149
 30
0.0
 10
37.759219
 20
13.145938
 30
0.0
 10
38.019127
 20
13.122121
 30
0.0
 10
38.250473
 20
13.050697
 30
0.0
 10
38.453258
 20
12.931643
 30
0.0
 10
38.627481
 20
12.764977
 30
0.0
 10
38.769097
 20
12.557785
 30
0.0
 10
38.870252
 20
12.317169
 30
0.0
 10
38.930944
 20
12.043129
 30
0.0
 10
38.951173
 20
11.735666
 30
0.0
 10
38.951173
 20
11.156906
 30
0.0
 10
38.951173
 20
10.578146
 30
0.0
 10
38.951173
 20
9.999387
 30
0.0
 10
38.951173
 20
9.420627
 30
0.0
 10
38.595109
 20
9.420627
 30
0.0
 10
38.239046
 20
9.420627
 30
0.0
 10
37.882983
 20
9.420627
 30
0.0
 10
37.526919
 20
9.420627
 30
0.0
 10
37.526919
 20
9.903231
 30
0.0
 10
37.526919
 20
10.385834
 30
0.0
 10
37.526919
 20
10.868443
 30
0.0
 10
37.526919
 20
11.351047
 30
0.0
 10
37.523603
 20
11.458649
 30
0.0
 10
37.513605
 20
11.547017
 30
0.0
 10
37.496947
 20
11.616155
 30
0.0
 10
37.473623
 20
11.666075
 30
0.0
 10
37.442683
 20
11.701322
 30
0.0
 10
37.399363
 20
11.726522
 30
0.0
 10
37.343668
 20
11.741620
 30
0.0
 10
37.275597
 20
11.746405
 30
0.0
 10
37.170634
 20
11.725086
 30
0.0
 10
37.095661
 20
11.661211
 30
0.0
 10
37.050677
 20
11.554757
 30
0.0
 10
37.035683
 20
11.405714
 30
0.0
 10
37.035683
 20
10.909373
 30
0.0
 10
37.035683
 20
10.413033
 30
0.0
 10
37.035683
 20
9.916692
 30
0.0
 10
37.035683
 20
9.420351
 30
0.0
 10
36.679606
 20
9.420351
 30
0.0
 10
36.323542
 20
9.420351
 30
0.0
 10
35.967478
 20
9.420351
 30
0.0
 10
35.611414
 20
9.420351
 30
0.0
 10
35.611414
 20
10.670363
 30
0.0
 10
35.611414
 20
11.920370
 30
0.0
 10
35.611414
 20
13.170383
 30
0.0
 10
35.611414
 20
14.420395
 30
0.0
 10
35.967478
 20
14.420395
 30
0.0
 10
36.323541
 20
14.420395
 30
0.0
 10
36.679604
 20
14.420395
 30
0.0
  0
LWPOLYLINE
  5
127
100
AcDbEntity
  8
Letras
 62
7
100
AcDbPolyline
 90
80
 70
1
 10
43.517167
 20
11.025067
 30
0.0
 10
42.977360
 20
11.025067
 30
0.0
 10
42.437552
 20
11.025067
 30
0.0
 10
41.897745
 20
11.025067
 30
0.0
 10
41.357937
 20
11.025067
 30
0.0
 10
41.336277
 20
11.102222
 30
0.0
 10
41.320807
 20
11.176167
 30
0.0
 10
41.311522
 20
11.246911
 30
0.0
 10
41.308427
 20
11.314449
 30
0.0
 10
41.312738
 20
11.405566
 30
0.0
 10
41.325588
 20
11.495767
 30
0.0
 10
41.347010
 20
11.585049
 30
0.0
 10
41.377000
 20
11.673422
 30
0.0
 10
41.557887
 20
11.673422
 30
0.0
 10
41.738775
 20
11.673422
 30
0.0
 10
41.919663
 20
11.673422
 30
0.0
 10
42.100551
 20
11.673422
 30
0.0
 10
42.042238
 20
11.851311
 30
0.0
 10
41.943464
 20
11.978371
 30
0.0
 10
41.804228
 20
12.054612
 30
0.0
 10
41.624530
 20
12.080024
 30
0.0
 10
41.497433
 20
12.066308
 30
0.0
 10
41.382712
 20
12.025107
 30
0.0
 10
41.280367
 20
11.956425
 30
0.0
 10
41.190399
 20
11.860269
 30
0.0
 10
41.117092
 20
11.744427
 30
0.0
 10
41.064730
 20
11.613013
 30
0.0
 10
41.033315
 20
11.466033
 30
0.0
 10
41.022841
 20
11.303487
 30
0.0
 10
41.032839
 20
11.134301
 30
0.0
 10
41.062828
 20
10.982058
 30
0.0
 10
41.112809
 20
10.846753
 30
0.0
 10
41.182783
 20
10.728390
 30
0.0
 10
41.270848
 20
10.632234
 30
0.0
 10
41.371287
 20
10.563553
 30
0.0
 10
41.484104
 20
10.522352
 30
0.0
 10
41.609298
 20
10.508636
 30
0.0
 10
41.714975
 20
10.521448
 30
0.0
 10
41.818747
 20
10.559885
 30
0.0
 10
41.920615
 20
10.623989
 30
0.0
 10
42.020580
 20
10.713733
 30
0.0
 10
42.223365
 20
10.479300
 30
0.0
 10
42.426149
 20
10.244867
 30
0.0
 10
42.628934
 20
10.010434
 30
0.0
 10
42.831719
 20
9.776001
 30
0.0
 10
42.540156
 20
9.588500
 30
0.0
 10
42.232885
 20
9.454566
 30
0.0
 10
41.909905
 20
9.374210
 30
0.0
 10
41.571216
 20
9.347416
 30
0.0
 10
41.165408
 20
9.381547
 30
0.0
 10
40.793399
 20
9.483880
 30
0.0
 10
40.455186
 20
9.654443
 30
0.0
 10
40.150770
 20
9.893225
 30
0.0
 10
39.899194
 20
10.182379
 30
0.0
 10
39.719496
 20
10.504037
 30
0.0
 10
39.611677
 20
10.858209
 30
0.0
 10
39.575735
 20
11.244886
 30
0.0
 10
39.611915
 20
11.630419
 30
0.0
 10
39.720447
 20
11.984820
 30
0.0
 10
39.901335
 20
12.308083
 30
0.0
 10
40.154578
 20
12.600209
 30
0.0
 10
40.462325
 20
12.842196
 30
0.0
 10
40.802918
 20
13.015051
 30
0.0
 10
41.176356
 20
13.118756
 30
0.0
 10
41.582640
 20
13.153312
 30
0.0
 10
41.979165
 20
13.119447
 30
0.0
 10
42.342369
 20
13.017794
 30
0.0
 10
42.672251
 20
12.848379
 30
0.0
 10
42.968812
 20
12.611197
 30
0.0
 10
43.215391
 20
12.326169
 30
0.0
 10
43.391519
 20
12.009546
 30
0.0
 10
43.497196
 20
11.661328
 30
0.0
 10
43.532419
 20
11.281515
 30
0.0
 10
43.531479
 20
11.235263
 30
0.0
 10
43.528605
 20
11.177113
 30
0.0
 10
43.523852
 20
11.107060
 30
0.0
 10
43.517187
 20
11.025099
 30
0.0
 10
43.517186
 20
11.025099
 30
0.0
 10
43.517186
 20
11.025099
 30
0.0
 10
43.517185
 20
11.025099
 30
0.0
  0
LWPOLYLINE
  5
128
100
AcDbEntity
  8
Letras
 62
7
100
AcDbPolyline
 90
56
 70
1
 10
47.713765
 20
12.984790
 30
0.0
 10
47.713765
 20
12.093756
 30
0.0
 10
47.713765
 20
11.202727
 30
0.0
 10
47.713765
 20
10.311693
 30
0.0
 10
47.713765
 20
9.420659
 30
0.0
 10
47.327236
 20
9.420659
 30
0.0
 10
46.940707
 20
9.420659
 30
0.0
 10
46.554178
 20
9.420659
 30
0.0
 10
46.167650
 20
9.420659
 30
0.0
 10
46.167650
 20
10.670671
 30
0.0
 10
46.167650
 20
11.920678
 30
0.0
 10
46.167650
 20
13.170691
 30
0.0
 10
46.167650
 20
14.420703
 30
0.0
 10
46.671280
 20
14.420703
 30
0.0
 10
47.174910
 20
14.420703
 30
0.0
 10
47.678539
 20
14.420703
 30
0.0
 10
48.182169
 20
14.420703
 30
0.0
 10
48.808850
 20
14.384552
 30
0.0
 10
49.363652
 20
14.276036
 30
0.0
 10
49.846576
 20
14.095170
 30
0.0
 10
50.257619
 20
13.841965
 30
0.0
 10
50.647480
 20
13.464901
 30
0.0
 10
50.925953
 20
13.026024
 30
0.0
 10
51.093036
 20
12.525329
 30
0.0
 10
51.148730
 20
11.962826
 30
0.0
 10
51.101127
 20
11.421153
 30
0.0
 10
50.958320
 20
10.931681
 30
0.0
 10
50.720310
 20
10.494404
 30
0.0
 10
50.387095
 20
10.109328
 30
0.0
 10
49.978908
 20
9.795225
 30
0.0
 10
49.515977
 20
9.570866
 30
0.0
 10
48.998305
 20
9.436246
 30
0.0
 10
48.425890
 20
9.391377
 30
0.0
 10
48.344253
 20
9.392440
 30
0.0
 10
48.240242
 20
9.395098
 30
0.0
 10
48.113859
 20
9.399883
 30
0.0
 10
47.965102
 20
9.406316
 30
0.0
 10
47.965102
 20
9.773534
 30
0.0
 10
47.965102
 20
10.140753
 30
0.0
 10
47.965102
 20
10.507971
 30
0.0
 10
47.965102
 20
10.875190
 30
0.0
 10
48.026985
 20
10.875190
 30
0.0
 10
48.088867
 20
10.875190
 30
0.0
 10
48.150750
 20
10.875190
 30
0.0
 10
48.212633
 20
10.875190
 30
0.0
 10
48.804088
 20
10.943185
 30
0.0
 10
49.226557
 20
11.147172
 30
0.0
 10
49.480038
 20
11.487144
 30
0.0
 10
49.564532
 20
11.963113
 30
0.0
 10
49.481466
 20
12.410230
 30
0.0
 10
49.232269
 20
12.729602
 30
0.0
 10
48.816941
 20
12.921223
 30
0.0
 10
48.235482
 20
12.985099
 30
0.0
 10
48.105052
 20
12.985093
 30
0.0
 10
47.974622
 20
12.985088
 30
0.0
 10
47.844193
 20
12.985083
 30
0.0
  0
LWPOLYLINE
  5
129
100
AcDbEntity
  8
Letras
 62
7
100
AcDbPolyline
 90
76
 70
1
 10
53.882993
 20
10.790634
 30
0.0
 10
53.882993
 20
10.436233
 30
0.0
 10
53.882993
 20
10.081832
 30
0.0
 10
53.882993
 20
9.727436
 30
0.0
 10
53.882993
 20
9.373035
 30
0.0
 10
53.797309
 20
9.360223
 30
0.0
 10
53.715433
 20
9.351079
 30
0.0
 10
53.637366
 20
9.345603
 30
0.0
 10
53.563107
 20
9.344008
 30
0.0
 10
53.152539
 20
9.377873
 30
0.0
 10
52.777673
 20
9.479526
 30
0.0
 10
52.438508
 20
9.648941
 30
0.0
 10
52.135044
 20
9.886123
 30
0.0
 10
51.885133
 20
10.174357
 30
0.0
 10
51.706626
 20
10.496934
 30
0.0
 10
51.599521
 20
10.853850
 30
0.0
 10
51.563817
 20
11.245109
 30
0.0
 10
51.599759
 20
11.627436
 30
0.0
 10
51.707578
 20
11.979546
 30
0.0
 10
51.887276
 20
12.301438
 30
0.0
 10
52.138853
 20
12.593106
 30
0.0
 10
52.443744
 20
12.835094
 30
0.0
 10
52.779577
 20
13.007943
 30
0.0
 10
53.146350
 20
13.111653
 30
0.0
 10
53.544066
 20
13.146209
 30
0.0
 10
53.980339
 20
13.113727
 30
0.0
 10
54.367582
 20
13.016199
 30
0.0
 10
54.705794
 20
12.853648
 30
0.0
 10
54.994977
 20
12.626083
 30
0.0
 10
55.228227
 20
12.344032
 30
0.0
 10
55.394834
 20
12.014357
 30
0.0
 10
55.494799
 20
11.637064
 30
0.0
 10
55.528121
 20
11.212153
 30
0.0
 10
55.528121
 20
10.764345
 30
0.0
 10
55.528121
 20
10.316542
 30
0.0
 10
55.528121
 20
9.868733
 30
0.0
 10
55.528121
 20
9.420930
 30
0.0
 10
55.172056
 20
9.420930
 30
0.0
 10
54.815993
 20
9.420930
 30
0.0
 10
54.459930
 20
9.420930
 30
0.0
 10
54.103866
 20
9.420930
 30
0.0
 10
54.103866
 20
9.844012
 30
0.0
 10
54.103866
 20
10.267089
 30
0.0
 10
54.103866
 20
10.690172
 30
0.0
 10
54.103866
 20
11.113248
 30
0.0
 10
54.094581
 20
11.250611
 30
0.0
 10
54.066736
 20
11.373328
 30
0.0
 10
54.020327
 20
11.481387
 30
0.0
 10
53.955350
 20
11.574794
 30
0.0
 10
53.876568
 20
11.650116
 30
0.0
 10
53.784934
 20
11.703917
 30
0.0
 10
53.680448
 20
11.736187
 30
0.0
 10
53.563109
 20
11.746926
 30
0.0
 10
53.454576
 20
11.737090
 30
0.0
 10
53.353660
 20
11.707532
 30
0.0
 10
53.260359
 20
11.658303
 30
0.0
 10
53.174676
 20
11.589393
 30
0.0
 10
53.103035
 20
11.506974
 30
0.0
 10
53.051861
 20
11.417230
 30
0.0
 10
53.021159
 20
11.320159
 30
0.0
 10
53.010923
 20
11.215763
 30
0.0
 10
53.020208
 20
11.107246
 30
0.0
 10
53.048053
 20
11.008804
 30
0.0
 10
53.094462
 20
10.920431
 30
0.0
 10
53.159439
 20
10.842133
 30
0.0
 10
53.238697
 20
10.778029
 30
0.0
 10
53.327951
 20
10.732255
 30
0.0
 10
53.427201
 20
10.704770
 30
0.0
 10
53.536448
 20
10.695626
 30
0.0
 10
53.628081
 20
10.701580
 30
0.0
 10
53.716384
 20
10.719443
 30
0.0
 10
53.801353
 20
10.749214
 30
0.0
 10
53.882991
 20
10.790894
 30
0.0
 10
53.882991
 20
10.790894
 30
0.0
 10
53.882991
 20
10.790889
 30
0.0
 10
53.882991
 20
10.790884
 30
0.0
  0
LWPOLYLINE
  5
12a
100
AcDbEntity
  8
Letras
 62
7
100
AcDbPolyline
 90
68
 70
1
 10
56.849554
 20
7.819909
 30
0.0
 10
56.849554
 20
8.117531
 30
0.0
 10
56.849554
 20
8.415154
 30
0.0
 10
56.849554
 20
8.712777
 30
0.0
 10
56.849554
 20
9.010400
 30
0.0
 10
56.989742
 20
8.959097
 30
0.0
 10
57.120886
 20
8.922468
 30
0.0
 10
57.242986
 20
8.900512
 30
0.0
 10
57.356040
 20
8.893175
 30
0.0
 10
57.672118
 20
8.940118
 30
0.0
 10
57.927265
 20
9.080915
 30
0.0
 10
58.121481
 20
9.315582
 30
0.0
 10
58.254767
 20
9.644109
 30
0.0
 10
58.069119
 20
9.551158
 30
0.0
 10
57.885375
 20
9.484768
 30
0.0
 10
57.703535
 20
9.444949
 30
0.0
 10
57.523600
 20
9.431658
 30
0.0
 10
57.270595
 20
9.455263
 30
0.0
 10
57.040915
 20
9.526002
 30
0.0
 10
56.834560
 20
9.643907
 30
0.0
 10
56.651530
 20
9.808973
 30
0.0
 10
56.501583
 20
10.012273
 30
0.0
 10
56.394479
 20
10.241209
 30
0.0
 10
56.330216
 20
10.495791
 30
0.0
 10
56.308793
 20
10.776014
 30
0.0
 10
56.308793
 20
11.350196
 30
0.0
 10
56.308793
 20
11.924379
 30
0.0
 10
56.308793
 20
12.498556
 30
0.0
 10
56.308793
 20
13.072738
 30
0.0
 10
56.664857
 20
13.072738
 30
0.0
 10
57.020920
 20
13.072738
 30
0.0
 10
57.376983
 20
13.072738
 30
0.0
 10
57.733047
 20
13.072738
 30
0.0
 10
57.733047
 20
12.581889
 30
0.0
 10
57.733047
 20
12.091045
 30
0.0
 10
57.733047
 20
11.600196
 30
0.0
 10
57.733047
 20
11.109346
 30
0.0
 10
57.750661
 20
10.966720
 30
0.0
 10
57.803499
 20
10.864844
 30
0.0
 10
57.891563
 20
10.803717
 30
0.0
 10
58.014852
 20
10.783356
 30
0.0
 10
58.133144
 20
10.805791
 30
0.0
 10
58.217637
 20
10.873100
 30
0.0
 10
58.268336
 20
10.985280
 30
0.0
 10
58.285232
 20
11.142334
 30
0.0
 10
58.285232
 20
11.624938
 30
0.0
 10
58.285232
 20
12.107541
 30
0.0
 10
58.285232
 20
12.590150
 30
0.0
 10
58.285232
 20
13.072754
 30
0.0
 10
58.641295
 20
13.072754
 30
0.0
 10
58.997359
 20
13.072754
 30
0.0
 10
59.353422
 20
13.072754
 30
0.0
 10
59.709485
 20
13.072754
 30
0.0
 10
59.709485
 20
12.257727
 30
0.0
 10
59.709485
 20
11.442700
 30
0.0
 10
59.709485
 20
10.627678
 30
0.0
 10
59.709485
 20
9.812651
 30
0.0
 10
59.676164
 20
9.378580
 30
0.0
 10
59.576199
 20
8.988464
 30
0.0
 10
59.409592
 20
8.642309
 30
0.0
 10
59.176342
 20
8.340109
 30
0.0
 10
58.841699
 20
8.048441
 30
0.0
 10
58.473736
 20
7.840105
 30
0.0
 10
58.072450
 20
7.715108
 30
0.0
 10
57.637843
 20
7.673428
 30
0.0
 10
57.440057
 20
7.682572
 30
0.0
 10
57.242746
 20
7.710058
 30
0.0
 10
57.045912
 20
7.755831
 30
0.0
  0
LWPOLYLINE
  5
12b
100
AcDbEntity
  8
Circulo
 62
7
100
AcDbPolyline
 90
64
 70
1
 10
74.926023
 20
37.739840
 30
0.0
 10
74.734036
 20
33.937780
 30
0.0
 10
74.170538
 20
30.245580
 30
0.0
 10
73.254222
 20
26.681870
 30
0.0
 10
72.003776
 20
23.265370
 30
0.0
 10
70.437892
 20
20.014790
 30
0.0
 10
68.575264
 20
16.948790
 30
0.0
 10
66.434586
 20
14.086100
 30
0.0
 10
64.034552
 20
11.445370
 30
0.0
 10
61.393843
 20
9.045320
 30
0.0
 10
58.531152
 20
6.904630
 30
0.0
 10
55.465174
 20
5.042000
 30
0.0
 10
52.214603
 20
3.476110
 30
0.0
 10
48.798127
 20
2.225660
 30
0.0
 10
45.234443
 20
1.309340
 30
0.0
 10
41.542237
 20
0.745840
 30
0.0
 10
37.740203
 20
0.553850
 30
0.0
 10
33.938170
 20
0.745840
 30
0.0
 10
30.245963
 20
1.309340
 30
0.0
 10
26.682278
 20
2.225660
 30
0.0
 10
23.265804
 20
3.476110
 30
0.0
 10
20.015233
 20
5.042000
 30
0.0
 10
16.949257
 20
6.904630
 30
0.0
 10
14.086566
 20
9.045320
 30
0.0
 10
11.445857
 20
11.445390
 30
0.0
 10
9.045818
 20
14.086100
 30
0.0
 10
6.905138
 20
16.948790
 30
0.0
 10
5.042510
 20
20.014790
 30
0.0
 10
3.476629
 20
23.265370
 30
0.0
 10
2.226184
 20
26.681860
 30
0.0
 10
1.309867
 20
30.245580
 30
0.0
 10
0.746370
 20
33.937780
 30
0.0
 10
0.554383
 20
37.739840
 30
0.0
 10
0.746369
 20
41.541890
 30
0.0
 10
1.309867
 20
45.234100
 30
0.0
 10
2.226184
 20
48.797810
 30
0.0
 10
3.476629
 20
52.214300
 30
0.0
 10
5.042511
 20
55.464890
 30
0.0
 10
6.905138
 20
58.530870
 30
0.0
 10
9.045816
 20
61.393580
 30
0.0
 10
11.445858
 20
64.034290
 30
0.0
 10
14.086570
 20
66.434350
 30
0.0
 10
16.949259
 20
68.575030
 30
0.0
 10
20.015234
 20
70.437680
 30
0.0
 10
23.265804
 20
72.003560
 30
0.0
 10
26.682278
 20
73.254010
 30
0.0
 10
30.245964
 20
74.170340
 30
0.0
 10
33.938170
 20
74.733830
 30
0.0
 10
37.740203
 20
74.925830
 30
0.0
 10
41.542237
 20
74.733830
 30
0.0
 10
45.234444
 20
74.170340
 30
0.0
 10
48.798127
 20
73.254010
 30
0.0
 10
52.214601
 20
72.003560
 30
0.0
 10
55.465172
 20
70.437680
 30
0.0
 10
58.531147
 20
68.575030
 30
0.0
 10
61.393835
 20
66.434350
 30
0.0
 10
64.034546
 20
64.034290
 30
0.0
 10
66.434586
 20
61.393580
 30
0.0
 10
68.575264
 20
58.530870
 30
0.0
 10
70.437892
 20
55.464890
 30
0.0
 10
72.003776
 20
52.214300
 30
0.0
 10
73.254222
 20
48.797810
 30
0.0
 10
74.170538
 20
45.234100
 30
0.0
 10
74.734036
 20
41.541890
 30
0.0
  0
ENDSEC
  0
SECTION
  2
OBJECTS
  0
DICTIONARY
  5
C
330
0
100
AcDbDictionary
  3
ACAD_GROUP
350
D
  3
ACAD_MLINESTYLE
350
17
  0
DICTIONARY
  5
D
330
C
100
AcDbDictionary
  0
DICTIONARY
  5
1A
330
C
100
AcDbDictionary
  0
DICTIONARY
  5
17
330
C
100
AcDbDictionary
  3
STANDARD
350
18
  0
DICTIONARY
  5
19
330
C
100
AcDbDictionary
  0
ENDSEC
  0
EOF
